<?xml version="1.0" encoding="UTF-8" standalone="no"?>
<!-- Created with Inkscape (http://www.inkscape.org/) -->

<svg
   version="1.1"
   id="svg2"
   width="87.281067"
   height="87.2808"
   viewBox="0 0 87.281067 87.2808"
   sodipodi:docname="bogaty_park_maszynowy.ai"
   xmlns:inkscape="http://www.inkscape.org/namespaces/inkscape"
   xmlns:sodipodi="http://sodipodi.sourceforge.net/DTD/sodipodi-0.dtd"
   xmlns="http://www.w3.org/2000/svg"
   xmlns:svg="http://www.w3.org/2000/svg">
  <defs
     id="defs6">
    <clipPath
       clipPathUnits="userSpaceOnUse"
       id="clipPath18">
      <path
         d="M 0,65.461 H 65.461 V 0 H 0 Z"
         id="path16" />
    </clipPath>
  </defs>
  <sodipodi:namedview
     id="namedview4"
     pagecolor="#ffffff"
     bordercolor="#000000"
     borderopacity="0.25"
     inkscape:showpageshadow="2"
     inkscape:pageopacity="0.0"
     inkscape:pagecheckerboard="0"
     inkscape:deskcolor="#d1d1d1" />
  <g
     id="g8"
     inkscape:groupmode="layer"
     inkscape:label="bogaty_park_maszynowy"
     transform="matrix(1.3333333,0,0,-1.3333333,0,87.2808)">
    <path
       d="M 14.353,20.121 H 51.107 V 51.862 H 14.353 Z"
       style="fill:#009fe3;fill-opacity:1;fill-rule:nonzero;stroke:none"
       id="path10" />
    <g
       id="g12">
      <g
         id="g14"
         clip-path="url(#clipPath18)">
        <g
           id="g20"
           transform="translate(63.7152,34.2557)">
          <path
             d="m 0,0 h -11.85 v 10.924 c 0,0.418 -0.339,0.757 -0.758,0.757 -0.418,0 -0.757,-0.339 -0.757,-0.757 v -24.301 h -35.239 v 24.301 c 0,0.418 -0.339,0.757 -0.758,0.757 -0.418,0 -0.757,-0.339 -0.757,-0.757 V 0 H -61.97 v 23.068 l 6.392,6.391 H -6.392 L 0,23.068 Z m -6.683,-21.247 h -48.604 v 19.732 h 5.168 v -12.62 c 0,-0.418 0.339,-0.758 0.757,-0.758 h 36.754 c 0.419,0 0.758,0.34 0.758,0.758 v 12.62 h 5.167 z m 7.976,45.164 -6.835,6.836 c -0.142,0.142 -0.335,0.222 -0.536,0.222 h -49.813 c -0.201,0 -0.394,-0.08 -0.536,-0.222 l -6.836,-6.836 c -0.142,-0.142 -0.222,-0.335 -0.222,-0.535 v -24.14 c 0,-0.418 0.339,-0.757 0.758,-0.757 h 5.925 V -32.51 h -2.218 c -0.418,0 -0.758,-0.339 -0.758,-0.758 0,-0.418 0.34,-0.757 0.758,-0.757 h 5.951 c 0.418,0 0.758,0.339 0.758,0.757 0,0.419 -0.34,0.758 -0.758,0.758 h -2.218 v 9.747 h 48.604 v -9.747 h -2.218 c -0.418,0 -0.757,-0.339 -0.757,-0.758 0,-0.418 0.339,-0.757 0.757,-0.757 h 5.951 c 0.419,0 0.758,0.339 0.758,0.757 0,0.419 -0.339,0.758 -0.758,0.758 h -2.217 v 30.995 h 5.925 c 0.418,0 0.757,0.339 0.757,0.757 v 24.14 c 0,0.2 -0.08,0.393 -0.222,0.535"
             style="fill:#06282c;fill-opacity:1;fill-rule:nonzero;stroke:none"
             id="path22" />
        </g>
        <g
           id="g24"
           transform="translate(63.7152,34.2557)">
          <path
             d="m 0,0 h -11.85 v 10.924 c 0,0.418 -0.339,0.757 -0.758,0.757 -0.418,0 -0.757,-0.339 -0.757,-0.757 v -24.301 h -35.239 v 24.301 c 0,0.418 -0.339,0.757 -0.758,0.757 -0.418,0 -0.757,-0.339 -0.757,-0.757 V 0 H -61.97 v 23.068 l 6.392,6.391 H -6.392 L 0,23.068 Z m -6.683,-21.247 h -48.604 v 19.732 h 5.168 v -12.62 c 0,-0.418 0.339,-0.758 0.757,-0.758 h 36.754 c 0.419,0 0.758,0.34 0.758,0.758 v 12.62 h 5.167 z m 7.976,45.164 -6.835,6.836 c -0.142,0.142 -0.335,0.222 -0.536,0.222 h -49.813 c -0.201,0 -0.394,-0.08 -0.536,-0.222 l -6.836,-6.836 c -0.142,-0.142 -0.222,-0.335 -0.222,-0.535 v -24.14 c 0,-0.418 0.339,-0.757 0.758,-0.757 h 5.925 V -32.51 h -2.218 c -0.418,0 -0.758,-0.339 -0.758,-0.758 0,-0.418 0.34,-0.757 0.758,-0.757 h 5.951 c 0.418,0 0.758,0.339 0.758,0.757 0,0.419 -0.34,0.758 -0.758,0.758 h -2.218 v 9.747 h 48.604 v -9.747 h -2.218 c -0.418,0 -0.757,-0.339 -0.757,-0.758 0,-0.418 0.339,-0.757 0.757,-0.757 h 5.951 c 0.419,0 0.758,0.339 0.758,0.757 0,0.419 -0.339,0.758 -0.758,0.758 h -2.217 v 30.995 h 5.925 c 0.418,0 0.757,0.339 0.757,0.757 v 24.14 c 0,0.2 -0.08,0.393 -0.222,0.535 z"
             style="fill:none;stroke:#06282c;stroke-width:0.461;stroke-linecap:butt;stroke-linejoin:miter;stroke-miterlimit:10;stroke-dasharray:none;stroke-opacity:1"
             id="path26" />
        </g>
        <g
           id="g28"
           transform="translate(6.913,51.862)">
          <path
             d="m 0,0 v -9.577 c 0,-0.419 0.339,-0.758 0.758,-0.758 0.418,0 0.757,0.339 0.757,0.758 v 8.819 h 48.604 v -8.819 c 0,-0.419 0.34,-0.758 0.758,-0.758 0.419,0 0.758,0.339 0.758,0.758 V 0 c 0,0.418 -0.339,0.758 -0.758,0.758 H 0.758 C 0.339,0.758 0,0.418 0,0"
             style="fill:#06282c;fill-opacity:1;fill-rule:nonzero;stroke:none"
             id="path30" />
        </g>
        <g
           id="g32"
           transform="translate(6.913,51.862)">
          <path
             d="m 0,0 v -9.577 c 0,-0.419 0.339,-0.758 0.758,-0.758 0.418,0 0.757,0.339 0.757,0.758 v 8.819 h 48.604 v -8.819 c 0,-0.419 0.34,-0.758 0.758,-0.758 0.419,0 0.758,0.339 0.758,0.758 V 0 c 0,0.418 -0.339,0.758 -0.758,0.758 H 0.758 C 0.339,0.758 0,0.418 0,0 Z"
             style="fill:none;stroke:#06282c;stroke-width:0.461;stroke-linecap:butt;stroke-linejoin:miter;stroke-miterlimit:10;stroke-dasharray:none;stroke-opacity:1"
             id="path34" />
        </g>
        <g
           id="g36"
           transform="translate(28.9874,34.2587)">
          <path
             d="m 0,0 2.553,7.527 h 2.38 L 7.486,0 Z M 6.193,8.528 C 6.089,8.835 5.801,9.042 5.476,9.042 H 2.01 C 1.685,9.042 1.397,8.835 1.293,8.528 l -4.95,-14.592 c -0.135,-0.396 0.078,-0.827 0.474,-0.961 0.397,-0.135 0.826,0.078 0.961,0.474 l 1.708,5.036 H 8 l 1.708,-5.036 c 0.107,-0.316 0.402,-0.514 0.718,-0.514 0.08,0 0.162,0.013 0.243,0.04 0.396,0.134 0.609,0.565 0.474,0.961 z"
             style="fill:#06282c;fill-opacity:1;fill-rule:nonzero;stroke:none"
             id="path38" />
        </g>
        <g
           id="g40"
           transform="translate(28.9874,34.2587)">
          <path
             d="m 0,0 2.553,7.527 h 2.38 L 7.486,0 Z M 6.193,8.528 C 6.089,8.835 5.801,9.042 5.476,9.042 H 2.01 C 1.685,9.042 1.397,8.835 1.293,8.528 l -4.95,-14.592 c -0.135,-0.396 0.078,-0.827 0.474,-0.961 0.397,-0.135 0.826,0.078 0.961,0.474 l 1.708,5.036 H 8 l 1.708,-5.036 c 0.107,-0.316 0.402,-0.514 0.718,-0.514 0.08,0 0.162,0.013 0.243,0.04 0.396,0.134 0.609,0.565 0.474,0.961 z"
             style="fill:none;stroke:#06282c;stroke-width:0.461;stroke-linecap:butt;stroke-linejoin:miter;stroke-miterlimit:10;stroke-dasharray:none;stroke-opacity:1"
             id="path42" />
        </g>
      </g>
    </g>
  </g>
</svg>
