<?xml version="1.0" encoding="UTF-8" standalone="no"?>
<svg
   xmlns:dc="http://purl.org/dc/elements/1.1/"
   xmlns:cc="http://creativecommons.org/ns#"
   xmlns:rdf="http://www.w3.org/1999/02/22-rdf-syntax-ns#"
   xmlns:svg="http://www.w3.org/2000/svg"
   xmlns="http://www.w3.org/2000/svg"
   viewBox="0 0 55.833332 55.833332"
   height="55.833332"
   width="55.833332"
   xml:space="preserve"
   id="svg2"
   version="1.1"><metadata
     id="metadata8"><rdf:RDF><cc:Work
         rdf:about=""><dc:format>image/svg+xml</dc:format><dc:type
           rdf:resource="http://purl.org/dc/dcmitype/StillImage" /></cc:Work></rdf:RDF></metadata><defs
     id="defs6"><clipPath
       id="clipPath18"
       clipPathUnits="userSpaceOnUse"><path
         id="path16"
         d="M 0,41.875 H 41.875 V 0 H 0 Z" /></clipPath></defs><g
     transform="matrix(1.3333333,0,0,-1.3333333,0,55.833333)"
     id="g10"><g
       id="g12"><g
         clip-path="url(#clipPath18)"
         id="g14"><g
           transform="translate(7.0899,34.8438)"
           id="g20"><path
             id="path22"
             style="fill:#007aff;fill-opacity:1;fill-rule:nonzero;stroke:none"
             d="m 0,0 h -0.001 z m -0.059,5.215 -5.214,-0.059 0.058,-5.215 5.156,0.058 z M 0,-1.875 h -5.273 c -1.002,0 -1.817,0.814 -1.817,1.816 v 5.274 c 0,1.002 0.815,1.816 1.817,1.816 H 0 c 1.001,0 1.816,-0.814 1.816,-1.816 V -0.059 C 1.816,-1.061 1.001,-1.875 0,-1.875" /></g><g
           transform="translate(23.6524,34.8438)"
           id="g24"><path
             id="path26"
             style="fill:#007aff;fill-opacity:1;fill-rule:nonzero;stroke:none"
             d="m 0,0 h -0.001 z m -0.059,5.215 -5.214,-0.059 0.058,-5.215 5.156,0.058 z M 0,-1.875 h -5.273 c -1.002,0 -1.817,0.814 -1.817,1.816 v 5.274 c 0,1.002 0.815,1.816 1.817,1.816 H 0 c 1.002,0 1.816,-0.814 1.816,-1.816 V -0.059 C 1.816,-1.061 1.002,-1.875 0,-1.875" /></g><g
           transform="translate(40.0586,34.8438)"
           id="g28"><path
             id="path30"
             style="fill:#007aff;fill-opacity:1;fill-rule:nonzero;stroke:none"
             d="m 0,0 h -0.001 z m -0.059,5.215 -5.214,-0.059 0.058,-5.215 5.156,0.058 z M 0,-1.875 h -5.273 c -1.002,0 -1.817,0.814 -1.817,1.816 v 5.274 c 0,1.002 0.815,1.816 1.817,1.816 H 0 c 1.002,0 1.816,-0.814 1.816,-1.816 V -0.059 C 1.816,-1.061 1.002,-1.875 0,-1.875" /></g><g
           transform="translate(7.0899,1.875)"
           id="g32"><path
             id="path34"
             style="fill:#007aff;fill-opacity:1;fill-rule:nonzero;stroke:none"
             d="m 0,0 h -0.001 z m -0.059,5.215 -5.214,-0.059 0.058,-5.215 5.156,0.058 z M 0,-1.875 h -5.273 c -1.002,0 -1.817,0.814 -1.817,1.816 v 5.274 c 0,1.002 0.815,1.816 1.817,1.816 H 0 c 1.001,0 1.816,-0.814 1.816,-1.816 V -0.059 C 1.816,-1.061 1.001,-1.875 0,-1.875" /></g><g
           transform="translate(23.6524,1.875)"
           id="g36"><path
             id="path38"
             style="fill:#007aff;fill-opacity:1;fill-rule:nonzero;stroke:none"
             d="m 0,0 h -0.001 z m -0.059,5.215 -5.214,-0.059 0.058,-5.215 5.156,0.058 z M 0,-1.875 h -5.273 c -1.002,0 -1.817,0.814 -1.817,1.816 v 5.274 c 0,1.002 0.815,1.816 1.817,1.816 H 0 c 1.002,0 1.816,-0.814 1.816,-1.816 V -0.059 C 1.816,-1.061 1.002,-1.875 0,-1.875" /></g><g
           transform="translate(40.0586,1.875)"
           id="g40"><path
             id="path42"
             style="fill:#007aff;fill-opacity:1;fill-rule:nonzero;stroke:none"
             d="m 0,0 h -0.001 z m -0.059,5.215 -5.214,-0.059 0.058,-5.215 5.156,0.058 z M 0,-1.875 h -5.273 c -1.002,0 -1.817,0.814 -1.817,1.816 v 5.274 c 0,1.002 0.815,1.816 1.817,1.816 H 0 c 1.002,0 1.816,-0.814 1.816,-1.816 V -0.059 C 1.816,-1.061 1.002,-1.875 0,-1.875" /></g><g
           transform="translate(7.0899,19.2188)"
           id="g44"><path
             id="path46"
             style="fill:#007aff;fill-opacity:1;fill-rule:nonzero;stroke:none"
             d="m 0,0 h -0.001 z m -0.059,5.215 -5.214,-0.059 0.058,-5.215 5.156,0.058 z M 0,-1.875 h -5.273 c -1.002,0 -1.817,0.814 -1.817,1.816 v 5.274 c 0,1.002 0.815,1.816 1.817,1.816 H 0 c 1.001,0 1.816,-0.814 1.816,-1.816 V -0.059 C 1.816,-1.061 1.001,-1.875 0,-1.875" /></g><g
           transform="translate(40.0586,19.2188)"
           id="g48"><path
             id="path50"
             style="fill:#007aff;fill-opacity:1;fill-rule:nonzero;stroke:none"
             d="m 0,0 h -0.001 z m -0.059,5.215 -5.214,-0.059 0.058,-5.215 5.156,0.058 z M 0,-1.875 h -5.273 c -1.002,0 -1.817,0.814 -1.817,1.816 v 5.274 c 0,1.002 0.815,1.816 1.817,1.816 H 0 c 1.002,0 1.816,-0.814 1.816,-1.816 V -0.059 C 1.816,-1.061 1.002,-1.875 0,-1.875" /></g><g
           transform="translate(17.5,36.5625)"
           id="g52"><path
             id="path54"
             style="fill:#007aff;fill-opacity:1;fill-rule:nonzero;stroke:none"
             d="m 0,0 h -9.531 c -0.518,0 -0.938,0.42 -0.938,0.937 0,0.518 0.42,0.938 0.938,0.938 H 0 c 0.518,0 0.938,-0.42 0.938,-0.938 C 0.938,0.42 0.518,0 0,0" /></g><g
           transform="translate(4.375,24.375)"
           id="g56"><path
             id="path58"
             style="fill:#007aff;fill-opacity:1;fill-rule:nonzero;stroke:none"
             d="m 0,0 c -0.518,0 -0.937,0.42 -0.937,0.937 v 8.594 c 0,0.518 0.419,0.938 0.937,0.938 0.518,0 0.938,-0.42 0.938,-0.938 V 0.937 C 0.938,0.42 0.518,0 0,0" /></g><g
           transform="translate(4.375,7.0312)"
           id="g60"><path
             id="path62"
             style="fill:#007aff;fill-opacity:1;fill-rule:nonzero;stroke:none"
             d="M 0,0 C -0.518,0 -0.937,0.42 -0.937,0.937 V 11.25 c 0,0.518 0.419,0.938 0.937,0.938 0.518,0 0.938,-0.42 0.938,-0.938 V 0.937 C 0.938,0.42 0.518,0 0,0" /></g><g
           transform="translate(17.5,3.4375)"
           id="g64"><path
             id="path66"
             style="fill:#007aff;fill-opacity:1;fill-rule:nonzero;stroke:none"
             d="m 0,0 h -9.531 c -0.518,0 -0.938,0.42 -0.938,0.937 0,0.518 0.42,0.938 0.938,0.938 H 0 c 0.518,0 0.938,-0.42 0.938,-0.938 C 0.938,0.42 0.518,0 0,0" /></g><g
           transform="translate(33.9063,3.4375)"
           id="g68"><path
             id="path70"
             style="fill:#007aff;fill-opacity:1;fill-rule:nonzero;stroke:none"
             d="m 0,0 h -9.375 c -0.518,0 -0.938,0.42 -0.938,0.937 0,0.518 0.42,0.938 0.938,0.938 H 0 c 0.518,0 0.937,-0.42 0.937,-0.938 C 0.937,0.42 0.518,0 0,0" /></g><g
           transform="translate(37.5,7.0312)"
           id="g72"><path
             id="path74"
             style="fill:#007aff;fill-opacity:1;fill-rule:nonzero;stroke:none"
             d="M 0,0 C -0.518,0 -0.937,0.42 -0.937,0.937 V 11.25 c 0,0.518 0.419,0.938 0.937,0.938 0.518,0 0.937,-0.42 0.937,-0.938 V 0.937 C 0.937,0.42 0.518,0 0,0" /></g><g
           transform="translate(37.5,24.375)"
           id="g76"><path
             id="path78"
             style="fill:#007aff;fill-opacity:1;fill-rule:nonzero;stroke:none"
             d="m 0,0 c -0.518,0 -0.937,0.42 -0.937,0.937 v 8.594 c 0,0.518 0.419,0.938 0.937,0.938 0.518,0 0.937,-0.42 0.937,-0.938 V 0.937 C 0.937,0.42 0.518,0 0,0" /></g><g
           transform="translate(33.9063,36.5625)"
           id="g80"><path
             id="path82"
             style="fill:#007aff;fill-opacity:1;fill-rule:nonzero;stroke:none"
             d="m 0,0 h -9.375 c -0.518,0 -0.938,0.42 -0.938,0.937 0,0.518 0.42,0.938 0.938,0.938 H 0 c 0.518,0 0.937,-0.42 0.937,-0.938 C 0.937,0.42 0.518,0 0,0" /></g></g></g></g></svg>