<?xml version="1.0" encoding="UTF-8" standalone="no"?>
<!-- Created with Inkscape (http://www.inkscape.org/) -->

<svg
   version="1.1"
   id="svg2"
   width="87.281197"
   height="87.2808"
   viewBox="0 0 87.281197 87.2808"
   sodipodi:docname="indywidualne_podejscie.ai"
   xmlns:inkscape="http://www.inkscape.org/namespaces/inkscape"
   xmlns:sodipodi="http://sodipodi.sourceforge.net/DTD/sodipodi-0.dtd"
   xmlns="http://www.w3.org/2000/svg"
   xmlns:svg="http://www.w3.org/2000/svg">
  <defs
     id="defs6">
    <clipPath
       clipPathUnits="userSpaceOnUse"
       id="clipPath18">
      <path
         d="M 0,65.461 H 65.461 V 0 H 0 Z"
         id="path16" />
    </clipPath>
  </defs>
  <sodipodi:namedview
     id="namedview4"
     pagecolor="#ffffff"
     bordercolor="#000000"
     borderopacity="0.25"
     inkscape:showpageshadow="2"
     inkscape:pageopacity="0.0"
     inkscape:pagecheckerboard="0"
     inkscape:deskcolor="#d1d1d1" />
  <g
     id="g8"
     inkscape:groupmode="layer"
     inkscape:label="indywidualne_podejscie"
     transform="matrix(1.3333333,0,0,-1.3333333,0,87.2808)">
    <path
       d="m 10.601,39.312 h 12.89 V 54.86 h -12.89 z"
       style="fill:#009fe3;fill-opacity:1;fill-rule:nonzero;stroke:none"
       id="path10" />
    <g
       id="g12">
      <g
         id="g14"
         clip-path="url(#clipPath18)">
        <g
           id="g20"
           transform="translate(47.7751,34.3767)">
          <path
             d="m 0,0 c -9.218,0 -16.691,-7.473 -16.691,-16.691 0,-9.218 7.473,-16.691 16.691,-16.691 9.218,0 16.691,7.473 16.691,16.691 C 16.691,-7.473 9.218,0 0,0"
             style="fill:#009fe3;fill-opacity:1;fill-rule:nonzero;stroke:none"
             id="path22" />
        </g>
        <path
           d="M 22.727,40.076 H 11.365 v 14.019 h 11.362 z m 1.528,14.784 c 0,0.422 -0.342,0.764 -0.764,0.764 h -12.89 c -0.422,0 -0.764,-0.342 -0.764,-0.764 V 39.312 c 0,-0.422 0.342,-0.764 0.764,-0.764 h 12.89 c 0.422,0 0.764,0.342 0.764,0.764 z"
           style="fill:#06282c;fill-opacity:1;fill-rule:nonzero;stroke:none"
           id="path24" />
        <path
           d="M 22.727,40.076 H 11.365 v 14.019 h 11.362 z m 1.528,14.784 c 0,0.422 -0.342,0.764 -0.764,0.764 h -12.89 c -0.422,0 -0.764,-0.342 -0.764,-0.764 V 39.312 c 0,-0.422 0.342,-0.764 0.764,-0.764 h 12.89 c 0.422,0 0.764,0.342 0.764,0.764 z"
           style="fill:none;stroke:#06282c;stroke-width:0.461;stroke-linecap:butt;stroke-linejoin:miter;stroke-miterlimit:10;stroke-dasharray:none;stroke-opacity:1"
           id="path26" />
        <g
           id="g28"
           transform="translate(23.4907,32.0587)">
          <path
             d="m 0,0 h -12.42 c -0.422,0 -0.764,-0.342 -0.764,-0.764 0,-0.422 0.342,-0.764 0.764,-0.764 H 0 c 0.422,0 0.764,0.342 0.764,0.764 C 0.764,-0.342 0.422,0 0,0"
             style="fill:#06282c;fill-opacity:1;fill-rule:nonzero;stroke:none"
             id="path30" />
        </g>
        <g
           id="g32"
           transform="translate(23.4907,32.0587)">
          <path
             d="m 0,0 h -12.42 c -0.422,0 -0.764,-0.342 -0.764,-0.764 0,-0.422 0.342,-0.764 0.764,-0.764 H 0 c 0.422,0 0.764,0.342 0.764,0.764 C 0.764,-0.342 0.422,0 0,0 Z"
             style="fill:none;stroke:#06282c;stroke-width:0.461;stroke-linecap:butt;stroke-linejoin:miter;stroke-miterlimit:10;stroke-dasharray:none;stroke-opacity:1"
             id="path34" />
        </g>
        <g
           id="g36"
           transform="translate(23.4907,24.041)">
          <path
             d="m 0,0 h -12.42 c -0.422,0 -0.764,-0.342 -0.764,-0.764 0,-0.422 0.342,-0.764 0.764,-0.764 H 0 c 0.422,0 0.764,0.342 0.764,0.764 C 0.764,-0.342 0.422,0 0,0"
             style="fill:#06282c;fill-opacity:1;fill-rule:nonzero;stroke:none"
             id="path38" />
        </g>
        <g
           id="g40"
           transform="translate(23.4907,24.041)">
          <path
             d="m 0,0 h -12.42 c -0.422,0 -0.764,-0.342 -0.764,-0.764 0,-0.422 0.342,-0.764 0.764,-0.764 H 0 c 0.422,0 0.764,0.342 0.764,0.764 C 0.764,-0.342 0.422,0 0,0 Z"
             style="fill:none;stroke:#06282c;stroke-width:0.461;stroke-linecap:butt;stroke-linejoin:miter;stroke-miterlimit:10;stroke-dasharray:none;stroke-opacity:1"
             id="path42" />
        </g>
        <g
           id="g44"
           transform="translate(23.4907,16.0236)">
          <path
             d="m 0,0 h -12.42 c -0.422,0 -0.764,-0.342 -0.764,-0.764 0,-0.422 0.342,-0.764 0.764,-0.764 H 0 c 0.422,0 0.764,0.342 0.764,0.764 C 0.764,-0.342 0.422,0 0,0"
             style="fill:#06282c;fill-opacity:1;fill-rule:nonzero;stroke:none"
             id="path46" />
        </g>
        <g
           id="g48"
           transform="translate(23.4907,16.0236)">
          <path
             d="m 0,0 h -12.42 c -0.422,0 -0.764,-0.342 -0.764,-0.764 0,-0.422 0.342,-0.764 0.764,-0.764 H 0 c 0.422,0 0.764,0.342 0.764,0.764 C 0.764,-0.342 0.422,0 0,0 Z"
             style="fill:none;stroke:#06282c;stroke-width:0.461;stroke-linecap:butt;stroke-linejoin:miter;stroke-miterlimit:10;stroke-dasharray:none;stroke-opacity:1"
             id="path50" />
        </g>
        <g
           id="g52"
           transform="translate(42.9033,62.6377)">
          <path
             d="M 0,0 11.157,-11.157 H 0 Z m -11.473,-60.879 h -26.662 c -1.659,0 -3.01,1.35 -3.01,3.01 v 55.924 c 0,1.659 1.351,3.009 3.01,3.009 h 36.607 v -12.985 c 0,-0.422 0.342,-0.764 0.764,-0.764 h 12.985 v -10.347 c 0,-0.422 0.343,-0.764 0.765,-0.764 0.422,0 0.764,0.342 0.764,0.764 v 11.127 c 0,0.203 -0.081,0.397 -0.224,0.54 L -0.208,2.369 c -0.143,0.143 -0.338,0.224 -0.54,0.224 h -37.387 c -2.502,0 -4.538,-2.036 -4.538,-4.538 v -55.924 c 0,-2.503 2.036,-4.538 4.538,-4.538 h 26.662 c 0.422,0 0.765,0.342 0.765,0.764 0,0.422 -0.343,0.764 -0.765,0.764"
             style="fill:#06282c;fill-opacity:1;fill-rule:nonzero;stroke:none"
             id="path54" />
        </g>
        <g
           id="g56"
           transform="translate(42.9033,62.6377)">
          <path
             d="M 0,0 11.157,-11.157 H 0 Z m -11.473,-60.879 h -26.662 c -1.659,0 -3.01,1.35 -3.01,3.01 v 55.924 c 0,1.659 1.351,3.009 3.01,3.009 h 36.607 v -12.985 c 0,-0.422 0.342,-0.764 0.764,-0.764 h 12.985 v -10.347 c 0,-0.422 0.343,-0.764 0.765,-0.764 0.422,0 0.764,0.342 0.764,0.764 v 11.127 c 0,0.203 -0.081,0.397 -0.224,0.54 L -0.208,2.369 c -0.143,0.143 -0.338,0.224 -0.54,0.224 h -37.387 c -2.502,0 -4.538,-2.036 -4.538,-4.538 v -55.924 c 0,-2.503 2.036,-4.538 4.538,-4.538 h 26.662 c 0.422,0 0.765,0.342 0.765,0.764 0,0.422 -0.343,0.764 -0.765,0.764 z"
             style="fill:none;stroke:#06282c;stroke-width:0.461;stroke-linecap:butt;stroke-linejoin:miter;stroke-miterlimit:10;stroke-dasharray:none;stroke-opacity:1"
             id="path58" />
        </g>
        <g
           id="g60"
           transform="translate(47.7751,1.7585)">
          <path
             d="m 0,0 c -8.782,0 -15.927,7.145 -15.927,15.927 0,8.782 7.145,15.927 15.927,15.927 8.782,0 15.927,-7.145 15.927,-15.927 C 15.927,7.145 8.782,0 0,0 m 0,33.382 c -9.625,0 -17.455,-7.83 -17.455,-17.455 0,-9.625 7.83,-17.455 17.455,-17.455 9.625,0 17.456,7.83 17.456,17.455 0,9.625 -7.831,17.455 -17.456,17.455"
             style="fill:#06282c;fill-opacity:1;fill-rule:nonzero;stroke:none"
             id="path62" />
        </g>
        <g
           id="g64"
           transform="translate(47.7751,1.7585)">
          <path
             d="m 0,0 c -8.782,0 -15.927,7.145 -15.927,15.927 0,8.782 7.145,15.927 15.927,15.927 8.782,0 15.927,-7.145 15.927,-15.927 C 15.927,7.145 8.782,0 0,0 Z m 0,33.382 c -9.625,0 -17.455,-7.83 -17.455,-17.455 0,-9.625 7.83,-17.455 17.455,-17.455 9.625,0 17.456,7.83 17.456,17.455 0,9.625 -7.831,17.455 -17.456,17.455 z"
             style="fill:none;stroke:#06282c;stroke-width:0.461;stroke-linecap:butt;stroke-linejoin:miter;stroke-miterlimit:10;stroke-dasharray:none;stroke-opacity:1"
             id="path66" />
        </g>
        <g
           id="g68"
           transform="translate(54.3577,21.1831)">
          <path
             d="M 0,0 -6.583,-8.351 -13.165,0 c -0.261,0.331 -0.742,0.388 -1.073,0.127 -0.332,-0.261 -0.389,-0.742 -0.127,-1.073 l 7.182,-9.113 c 0.145,-0.184 0.366,-0.291 0.6,-0.291 0.234,0 0.456,0.107 0.6,0.291 L 1.2,-0.946 C 1.461,-0.615 1.405,-0.134 1.073,0.127 0.742,0.388 0.26,0.331 0,0"
             style="fill:#06282c;fill-opacity:1;fill-rule:nonzero;stroke:none"
             id="path70" />
        </g>
        <g
           id="g72"
           transform="translate(54.3577,21.1831)">
          <path
             d="M 0,0 -6.583,-8.351 -13.165,0 c -0.261,0.331 -0.742,0.388 -1.073,0.127 -0.332,-0.261 -0.389,-0.742 -0.127,-1.073 l 7.182,-9.113 c 0.145,-0.184 0.366,-0.291 0.6,-0.291 0.234,0 0.456,0.107 0.6,0.291 L 1.2,-0.946 C 1.461,-0.615 1.405,-0.134 1.073,0.127 0.742,0.388 0.26,0.331 0,0 Z"
             style="fill:none;stroke:#06282c;stroke-width:0.461;stroke-linecap:butt;stroke-linejoin:miter;stroke-miterlimit:10;stroke-dasharray:none;stroke-opacity:1"
             id="path74" />
        </g>
      </g>
    </g>
  </g>
</svg>
