<svg xmlns="http://www.w3.org/2000/svg" xmlns:xlink="http://www.w3.org/1999/xlink" version="1.1" width="678.115pt" height="639.93pt" viewBox="0 0 678.115 639.93">
<defs>
<clipPath id="clip_0">
<path transform="matrix(1,0,0,-1,0,639.93)" d="M0 639.93H678.115V0H0Z"/>
</clipPath>
</defs>
<g id="layer_1" data-name="">
<g clip-path="url(#clip_0)">
<path transform="matrix(1,0,0,-1,530.8456,218.1015)" stroke-width="17" stroke-linecap="round" stroke-linejoin="round" fill="none" stroke="#ffffff" d="M0 0C-20.849-19.748-53.759-18.856-73.508 1.993-93.256 22.841-92.364 55.752-71.515 75.5-50.666 95.249-17.756 94.356 1.993 73.508 21.741 52.659 20.849 19.748 0 0Z"/>
<path transform="matrix(1,0,0,-1,200.785,365.03129)" stroke-width="17" stroke-linecap="round" stroke-linejoin="round" fill="none" stroke="#ffffff" d="M0 0C-19.817 1.991-42.261-8.787-54.855-23.7-69.861-41.468-73.353-67.016-66.322-88.924-60.829-84.028-57.346-76.301-51.133-71.279-44.097-65.591-35.345-61.528-26.302-61.827-11.305-62.324 1.731-76.118 2.229-91.115 2.716-105.77-7.105-119.026-18.931-127.698-49.682-150.245-92.19-151.218-128.354-144.865-119.584-150.507-110.483-155.873-102.365-160.776-90.722-167.808-78.309-173.313-65.384-177.517-37.46-186.602-6.09-185.324 20.705-173.126 49.402-160.061 92.026-121.968 82.367-85.964"/>
<path transform="matrix(1,0,0,-1,320.5634,489.96449)" stroke-width="17" stroke-linecap="round" stroke-linejoin="round" fill="none" stroke="#ffffff" d="M0 0-148.892 157.189-88.286 183.295 29.351 59.102 0 0Z"/>
<path transform="matrix(1,0,0,-1,666.4086,14.503296)" stroke-width="17" stroke-linecap="round" stroke-linejoin="round" fill="none" stroke="#ffffff" d="M0 0C0 0-246.172 73.162-435.922-291.332L-316.529-417.379C57.71-247.654 0 0 0 0"/>
<path transform="matrix(1,0,0,-1,374.2773,421.67549)" stroke-width="17" stroke-linecap="round" stroke-linejoin="round" fill="none" stroke="#ffffff" d="M0 0 16.686-67.315 88.455-19.332C127.386 6.697 154.329 47.428 162.375 92.418L165.435 109.526"/>
<path transform="matrix(1,0,0,-1,240.842,280.8045)" stroke-width="17" stroke-linecap="round" stroke-linejoin="round" fill="none" stroke="#ffffff" d="M0 0-66.312 20.308-14.512 89.372C13.588 126.837 55.719 151.533 101.079 157.13L118.328 159.258"/>
<path transform="matrix(1,0,0,-1,564.415,23.429078)" stroke-width="17" stroke-linecap="round" stroke-linejoin="round" fill="none" stroke="#ffffff" d="M0 0 87.485-92.36"/>
<path transform="matrix(1,0,0,-1,310.1786,533.9962)" stroke-width="17" stroke-linecap="round" stroke-linejoin="round" fill="none" stroke="#ffffff" d="M0 0-89.391-84.672"/>
<path transform="matrix(1,0,0,-1,145.9857,315.9974)" stroke-width="17" stroke-linecap="round" stroke-linejoin="round" fill="none" stroke="#ffffff" d="M0 0-53.614-50.784"/>
<path transform="matrix(1,0,0,-1,64.4534,393.22608)" stroke-width="17" stroke-linecap="round" stroke-linejoin="round" fill="none" stroke="#ffffff" d="M0 0-24.177-22.901"/>
<path transform="matrix(1,0,0,-1,170.8684,600.7247)" stroke-width="17" stroke-linecap="round" stroke-linejoin="round" fill="none" stroke="#ffffff" d="M0 0-32.416-30.705"/>
<path transform="matrix(1,0,0,-1,53.3019,472.3112)" stroke-width="17" stroke-linecap="round" stroke-linejoin="round" fill="none" stroke="#ffffff" d="M0 0-44.802-42.437"/>
</g>
</g>
</svg>
