<svg xmlns="http://www.w3.org/2000/svg" xmlns:xlink="http://www.w3.org/1999/xlink" version="1.1" width="861.531pt" height="916.01pt" viewBox="0 0 861.531 916.01">
<defs>
<clipPath id="clip_0">
<path transform="matrix(1,0,0,-1,0,916.01)" d="M0 916.01H861.531V0H0Z"/>
</clipPath>
</defs>
<g id="layer_1" data-name="">
<g clip-path="url(#clip_0)">
<path transform="matrix(1,0,0,-1,346.9712,409.0044)" stroke-width="22" stroke-linecap="round" stroke-linejoin="round" fill="none" stroke="#ffffff" d="M0 0 19.703-298.888C21.021-318.889 5.877-336.171-14.124-337.489L-261.627-353.805C-281.627-355.123-298.909-339.979-300.228-319.978L-335.891 221.034C-337.21 241.034-322.065 258.316-302.065 259.635L-242.374 263.569"/>
<path transform="matrix(1,0,0,-1,336.5854,251.45313)" stroke-width="22" stroke-linecap="round" stroke-linejoin="round" fill="none" stroke="#ffffff" d="M0 0 4.026-61.068"/>
<path transform="matrix(1,0,0,-1,405.6902,449.5846)" stroke-width="22" stroke-linecap="round" stroke-linejoin="round" fill="none" stroke="#ffffff" d="M0 0C-6.122-90.586 14.207-124.244 43.9-142.11"/>
<path transform="matrix(1,0,0,-1,637.6964,553.4909)" stroke-width="22" stroke-linecap="round" stroke-linejoin="round" fill="none" stroke="#ffffff" d="M0 0-23.768 10.499C-32.054 15.118-37.351 19.836-41.823 24.508L-120.689 117.731C-145.395 143.535-164.015 178.544-196.234 193.976L-277.651 232.206C-284.246 235.302-291.333 237.217-298.589 237.862L-370.249 234.104-395.41 233.784C-400.016 233.725-403.898 230.312-404.503 225.745-407.055 206.463-406.328 172.502-306.586 159.332L-232.006 103.906"/>
<path transform="matrix(1,0,0,-1,647.5773,541.5371)" stroke-width="22" stroke-linecap="round" stroke-linejoin="round" fill="none" stroke="#ffffff" d="M0 0-104.097-294.078C-106.3-300.299-103.459-307.18-97.509-310.035L-25.575-344.734C-18.681-348.042-10.438-344.671-7.837-337.48L99.499-40.669C101.818-34.255 98.752-27.144 92.497-24.427L17.323 7.538C10.456 10.521 2.499 7.058 0 0Z"/>
<path transform="matrix(1,0,0,-1,742.6948,601.13638)" stroke-width="22" stroke-linecap="round" stroke-linejoin="round" fill="none" stroke="#ffffff" d="M0 0 107.837-49.1"/>
<path transform="matrix(1,0,0,-1,652.7379,853.4895)" stroke-width="22" stroke-linecap="round" stroke-linejoin="round" fill="none" stroke="#ffffff" d="M0 0 76.013-51.521"/>
<path transform="matrix(1,0,0,-1,361.0107,732.8389)" stroke-width="22" stroke-linecap="round" stroke-linejoin="round" fill="none" stroke="#ffffff" d="M0 0 103.157-14.097C107.847-15.271 112.331-17.151 116.455-19.673L192.227-57.037"/>
<path transform="matrix(1,0,0,-1,170.8953,25.134339)" stroke-width="22" stroke-linecap="round" stroke-linejoin="round" fill="none" stroke="#ffffff" d="M0 0 213.633 14.083C226.546 14.934 237.704 5.156 238.555-7.757L248.074-152.151C248.925-165.064 239.147-176.222 226.235-177.073L112.305-184.838C109.968-184.997 107.778-186.034 106.174-187.74L58.822-238.097C56.559-240.341 52.708-238.883 52.498-235.704L48.939-188.761 12.601-191.156C-.312-192.007-11.47-182.229-12.321-169.317L-21.839-24.922C-22.691-12.009-12.913-.851 0 0Z"/>
<path transform="matrix(1,0,0,-1,180.5139,547.7155)" stroke-width="22" stroke-linecap="round" stroke-linejoin="round" fill="none" stroke="#ffffff" d="M0 0 119.405 8.337"/>
<path transform="matrix(1,0,0,-1,86.9456,398.15864)" stroke-width="22" stroke-linecap="round" stroke-linejoin="round" fill="none" stroke="#ffffff" d="M0 0 64.201 4.483"/>
<path transform="matrix(1,0,0,-1,89.1508,442.3974)" stroke-width="22" stroke-linecap="round" stroke-linejoin="round" fill="none" stroke="#ffffff" d="M0 0 123.171 8.446"/>
<path transform="matrix(1,0,0,-1,135.6765,655.1521)" stroke-width="22" stroke-linecap="round" stroke-linejoin="round" fill="none" stroke="#ffffff" d="M0 0 .998 .07"/>
<path transform="matrix(1,0,0,-1,183.1814,651.8352)" stroke-width="22" stroke-linecap="round" stroke-dasharray="2.072,46.62" stroke-linejoin="round" fill="none" stroke="#ffffff" d="M0 0 25.32 1.768"/>
<path transform="matrix(1,0,0,-1,231.7545,648.44387)" stroke-width="22" stroke-linecap="round" stroke-linejoin="round" fill="none" stroke="#ffffff" d="M0 0 .997 .07"/>
</g>
</g>
</svg>
