<?xml version="1.0" encoding="UTF-8" standalone="no"?>
<!-- Created with Inkscape (http://www.inkscape.org/) -->

<svg
   version="1.1"
   id="svg2"
   width="76.527336"
   height="87.2808"
   viewBox="0 0 76.527336 87.2808"
   sodipodi:docname="profesjonalna_obsluga.ai"
   xmlns:inkscape="http://www.inkscape.org/namespaces/inkscape"
   xmlns:sodipodi="http://sodipodi.sourceforge.net/DTD/sodipodi-0.dtd"
   xmlns="http://www.w3.org/2000/svg"
   xmlns:svg="http://www.w3.org/2000/svg">
  <defs
     id="defs6">
    <clipPath
       clipPathUnits="userSpaceOnUse"
       id="clipPath16">
      <path
         d="M 0,65.461 H 57.395 V 0 H 0 Z"
         id="path14" />
    </clipPath>
  </defs>
  <sodipodi:namedview
     id="namedview4"
     pagecolor="#ffffff"
     bordercolor="#000000"
     borderopacity="0.25"
     inkscape:showpageshadow="2"
     inkscape:pageopacity="0.0"
     inkscape:pagecheckerboard="0"
     inkscape:deskcolor="#d1d1d1" />
  <g
     id="g8"
     inkscape:groupmode="layer"
     inkscape:label="profesjonalna_obsluga"
     transform="matrix(1.3333333,0,0,-1.3333333,0,87.2808)">
    <g
       id="g10">
      <g
         id="g12"
         clip-path="url(#clipPath16)">
        <g
           id="g18"
           transform="translate(34.4268,64.5208)">
          <path
             d="m 0,0 h -11.457 c -3.33,0 -6.169,-2.212 -7.12,-5.24 4.254,-7.601 22.354,-2.429 26.037,-8.896 v 0.357 6.319 C 7.46,-3.357 4.103,0 0,0"
             style="fill:#009fe3;fill-opacity:1;fill-rule:nonzero;stroke:none"
             id="path20" />
        </g>
        <g
           id="g22"
           transform="translate(25.8092,31.6478)">
          <path
             d="m 0,0 -4.437,-17.739 7.294,-7.193 H 2.92 l 7.294,7.193 L 5.777,0 Z"
             style="fill:#009fe3;fill-opacity:1;fill-rule:nonzero;stroke:none"
             id="path24" />
        </g>
        <g
           id="g26"
           transform="translate(23.2508,45.8151)">
          <path
             d="M 0,0 C 0.766,0 1.388,0.623 1.388,1.388 1.388,2.154 0.766,2.777 0,2.777 -0.766,2.777 -1.388,2.154 -1.388,1.388 -1.388,0.623 -0.766,0 0,0"
             style="fill:#06282c;fill-opacity:1;fill-rule:nonzero;stroke:none"
             id="path28" />
        </g>
        <g
           id="g30"
           transform="translate(23.2508,45.8151)">
          <path
             d="M 0,0 C 0.766,0 1.388,0.623 1.388,1.388 1.388,2.154 0.766,2.777 0,2.777 -0.766,2.777 -1.388,2.154 -1.388,1.388 -1.388,0.623 -0.766,0 0,0 Z"
             style="fill:none;stroke:#06282c;stroke-width:0.461;stroke-linecap:butt;stroke-linejoin:miter;stroke-miterlimit:10;stroke-dasharray:none;stroke-opacity:1"
             id="path32" />
        </g>
        <g
           id="g34"
           transform="translate(34.145,45.8151)">
          <path
             d="M 0,0 C 0.765,0 1.388,0.623 1.388,1.388 1.388,2.154 0.765,2.777 0,2.777 -0.766,2.777 -1.388,2.154 -1.388,1.388 -1.388,0.623 -0.766,0 0,0"
             style="fill:#06282c;fill-opacity:1;fill-rule:nonzero;stroke:none"
             id="path36" />
        </g>
        <g
           id="g38"
           transform="translate(34.145,45.8151)">
          <path
             d="M 0,0 C 0.765,0 1.388,0.623 1.388,1.388 1.388,2.154 0.765,2.777 0,2.777 -0.766,2.777 -1.388,2.154 -1.388,1.388 -1.388,0.623 -0.766,0 0,0 Z"
             style="fill:none;stroke:#06282c;stroke-width:0.461;stroke-linecap:butt;stroke-linejoin:miter;stroke-miterlimit:10;stroke-dasharray:none;stroke-opacity:1"
             id="path40" />
        </g>
        <g
           id="g42"
           transform="translate(55.7464,1.6491)">
          <path
             d="m 0,0 h -9.907 v 12.375 c 0,0.392 -0.317,0.709 -0.709,0.709 -0.392,0 -0.709,-0.317 -0.709,-0.709 V 0 h -31.447 v 12.375 c 0,0.392 -0.317,0.709 -0.709,0.709 -0.392,0 -0.709,-0.317 -0.709,-0.709 V 0 h -9.907 v 20.055 c 0,5.482 2.937,6.891 5.298,8.023 0,0 9.099,4.569 11.333,5.691 1.755,-1.988 4.066,-3.47 6.69,-4.201 l -4.286,-17.136 c -0.061,-0.244 0.011,-0.501 0.19,-0.677 l 7.294,-7.193 c 0.133,-0.132 0.312,-0.205 0.498,-0.205 h 0.063 c 0.186,0 0.365,0.073 0.498,0.205 l 7.294,7.193 c 0.179,0.176 0.251,0.433 0.19,0.677 l -4.286,17.135 c 2.624,0.732 4.936,2.214 6.691,4.202 2.236,-1.124 11.332,-5.691 11.332,-5.691 C -2.937,26.946 0,25.537 0,20.055 Z m -27.048,29.055 c 0.799,0 1.58,0.072 2.342,0.202 l 4.197,-16.777 -6.54,-6.448 -6.539,6.448 4.196,16.777 c 0.763,-0.13 1.545,-0.202 2.344,-0.202 m -12.479,26.356 c 0,0.169 0.013,0.334 0.025,0.499 2.848,-3.027 8.226,-3.479 13.45,-3.915 5.05,-0.421 9.818,-0.824 11.483,-3.474 v -5.568 c 0,-6.88 -5.598,-12.479 -12.479,-12.479 -6.881,0 -12.479,5.599 -12.479,12.479 z m 6.751,6.751 h 11.456 c 3.723,0 6.751,-3.028 6.751,-6.751 v -4.77 c -2.481,2.027 -6.819,2.389 -11.365,2.768 -5.422,0.452 -11.022,0.92 -13.182,4.3 0.943,2.593 3.425,4.453 6.34,4.453 M -4.684,29.358 c 0,0 -8.451,4.242 -11.045,5.546 1.621,2.273 2.579,5.051 2.579,8.049 v 12.458 c 0,4.505 -3.665,8.17 -8.17,8.17 h -11.456 c -4.505,0 -8.17,-3.665 -8.17,-8.17 V 42.953 c 0,-2.998 0.958,-5.776 2.579,-8.049 -2.593,-1.302 -11.046,-5.546 -11.046,-5.546 -2.43,-1.166 -6.103,-2.927 -6.103,-9.303 V -0.709 c 0,-0.392 0.318,-0.71 0.709,-0.71 H 0.709 c 0.392,0 0.71,0.318 0.71,0.71 v 20.764 c 0,6.376 -3.673,8.137 -6.103,9.303"
             style="fill:#06282c;fill-opacity:1;fill-rule:nonzero;stroke:none"
             id="path44" />
        </g>
        <g
           id="g46"
           transform="translate(55.7464,1.6491)">
          <path
             d="m 0,0 h -9.907 v 12.375 c 0,0.392 -0.317,0.709 -0.709,0.709 -0.392,0 -0.709,-0.317 -0.709,-0.709 V 0 h -31.447 v 12.375 c 0,0.392 -0.317,0.709 -0.709,0.709 -0.392,0 -0.709,-0.317 -0.709,-0.709 V 0 h -9.907 v 20.055 c 0,5.482 2.937,6.891 5.298,8.023 0,0 9.099,4.569 11.333,5.691 1.755,-1.988 4.066,-3.47 6.69,-4.201 l -4.286,-17.136 c -0.061,-0.244 0.011,-0.501 0.19,-0.677 l 7.294,-7.193 c 0.133,-0.132 0.312,-0.205 0.498,-0.205 h 0.063 c 0.186,0 0.365,0.073 0.498,0.205 l 7.294,7.193 c 0.179,0.176 0.251,0.433 0.19,0.677 l -4.286,17.135 c 2.624,0.732 4.936,2.214 6.691,4.202 2.236,-1.124 11.332,-5.691 11.332,-5.691 C -2.937,26.946 0,25.537 0,20.055 Z m -27.048,29.055 c 0.799,0 1.58,0.072 2.342,0.202 l 4.197,-16.777 -6.54,-6.448 -6.539,6.448 4.196,16.777 c 0.763,-0.13 1.545,-0.202 2.344,-0.202 z m -12.479,26.356 c 0,0.169 0.013,0.334 0.025,0.499 2.848,-3.027 8.226,-3.479 13.45,-3.915 5.05,-0.421 9.818,-0.824 11.483,-3.474 v -5.568 c 0,-6.88 -5.598,-12.479 -12.479,-12.479 -6.881,0 -12.479,5.599 -12.479,12.479 z m 6.751,6.751 h 11.456 c 3.723,0 6.751,-3.028 6.751,-6.751 v -4.77 c -2.481,2.027 -6.819,2.389 -11.365,2.768 -5.422,0.452 -11.022,0.92 -13.182,4.3 0.943,2.593 3.425,4.453 6.34,4.453 z M -4.684,29.358 c 0,0 -8.451,4.242 -11.045,5.546 1.621,2.273 2.579,5.051 2.579,8.049 v 12.458 c 0,4.505 -3.665,8.17 -8.17,8.17 h -11.456 c -4.505,0 -8.17,-3.665 -8.17,-8.17 V 42.953 c 0,-2.998 0.958,-5.776 2.579,-8.049 -2.593,-1.302 -11.046,-5.546 -11.046,-5.546 -2.43,-1.166 -6.103,-2.927 -6.103,-9.303 V -0.709 c 0,-0.392 0.318,-0.71 0.709,-0.71 H 0.709 c 0.392,0 0.71,0.318 0.71,0.71 v 20.764 c 0,6.376 -3.673,8.137 -6.103,9.303 z"
             style="fill:none;stroke:#06282c;stroke-width:0.461;stroke-linecap:butt;stroke-linejoin:miter;stroke-miterlimit:10;stroke-dasharray:none;stroke-opacity:1"
             id="path48" />
        </g>
      </g>
    </g>
  </g>
</svg>
