<?xml version="1.0" encoding="UTF-8" standalone="no"?>
<svg
   xmlns:dc="http://purl.org/dc/elements/1.1/"
   xmlns:cc="http://creativecommons.org/ns#"
   xmlns:rdf="http://www.w3.org/1999/02/22-rdf-syntax-ns#"
   xmlns:svg="http://www.w3.org/2000/svg"
   xmlns="http://www.w3.org/2000/svg"
   viewBox="0 0 44.166668 55.833332"
   height="55.833332"
   width="44.166668"
   xml:space="preserve"
   id="svg2"
   version="1.1"><metadata
     id="metadata8"><rdf:RDF><cc:Work
         rdf:about=""><dc:format>image/svg+xml</dc:format><dc:type
           rdf:resource="http://purl.org/dc/dcmitype/StillImage" /></cc:Work></rdf:RDF></metadata><defs
     id="defs6"><clipPath
       id="clipPath18"
       clipPathUnits="userSpaceOnUse"><path
         id="path16"
         d="M 0,41.875 H 33.125 V 0 H 0 Z" /></clipPath></defs><g
     transform="matrix(1.3333333,0,0,-1.3333333,0,55.833333)"
     id="g10"><g
       id="g12"><g
         clip-path="url(#clipPath18)"
         id="g14"><g
           transform="translate(11.354,40)"
           id="g20"><path
             id="path22"
             style="fill:#007aff;fill-opacity:1;fill-rule:nonzero;stroke:none"
             d="m 0,0 c -0.357,0 -0.737,-0.146 -0.966,-0.372 l -8.147,-8.016 c -0.366,-0.38 -0.366,-0.593 -0.366,-1.109 v -27.826 c 0,-0.442 0.358,-0.802 0.799,-0.802 h 27.777 c 0.441,0 0.799,0.36 0.799,0.802 V -0.802 C 19.896,-0.36 19.538,0 19.097,0 Z M 19.097,-40 H -8.68 c -1.474,0 -2.674,1.201 -2.674,2.677 v 27.826 c 0,0.627 0,1.486 0.909,2.428 l 8.163,8.033 C -1.703,1.534 -0.85,1.875 0,1.875 h 19.097 c 1.474,0 2.674,-1.201 2.674,-2.677 v -36.521 c 0,-1.476 -1.2,-2.677 -2.674,-2.677" /></g><g
           transform="translate(8.8887,30.4688)"
           id="g24"><path
             id="path26"
             style="fill:#007aff;fill-opacity:1;fill-rule:nonzero;stroke:none"
             d="m 0,0 h -4.357 c -0.518,0 -0.938,0.42 -0.938,0.937 0,0.518 0.42,0.938 0.938,0.938 H 0 c 0.44,0 0.799,0.36 0.799,0.804 v 4.352 c 0,0.518 0.42,0.938 0.937,0.938 0.518,0 0.938,-0.42 0.938,-0.938 V 2.679 C 2.674,1.202 1.474,0 0,0" /></g><g
           transform="translate(16.5625,25.3125)"
           id="g28"><path
             id="path30"
             style="fill:#007aff;fill-opacity:1;fill-rule:nonzero;stroke:none"
             d="m 0,0 c -3.36,0 -6.094,-2.733 -6.094,-6.094 0,-3.36 2.734,-6.094 6.094,-6.094 3.36,0 6.094,2.734 6.094,6.094 C 6.094,-2.733 3.36,0 0,0 m 0,-14.063 c -4.394,0 -7.969,3.575 -7.969,7.969 0,4.394 3.575,7.969 7.969,7.969 4.394,0 7.969,-3.575 7.969,-7.969 0,-4.394 -3.575,-7.969 -7.969,-7.969" /></g><g
           transform="translate(16.5625,22.6563)"
           id="g32"><path
             id="path34"
             style="fill:#007aff;fill-opacity:1;fill-rule:nonzero;stroke:none"
             d="m 0,0 c -0.518,0 -0.938,0.42 -0.938,0.937 v 5.157 c 0,0.517 0.42,0.937 0.938,0.937 0.518,0 0.937,-0.42 0.937,-0.937 V 0.937 C 0.937,0.42 0.518,0 0,0" /></g><g
           transform="translate(12.3438,18.2813)"
           id="g36"><path
             id="path38"
             style="fill:#007aff;fill-opacity:1;fill-rule:nonzero;stroke:none"
             d="M 0,0 H -5.312 C -5.83,0 -6.25,0.42 -6.25,0.937 c 0,0.518 0.42,0.938 0.938,0.938 H 0 c 0.518,0 0.937,-0.42 0.937,-0.938 C 0.937,0.42 0.518,0 0,0" /></g><g
           transform="translate(16.5625,8.75)"
           id="g40"><path
             id="path42"
             style="fill:#007aff;fill-opacity:1;fill-rule:nonzero;stroke:none"
             d="m 0,0 c -0.518,0 -0.938,0.42 -0.938,0.937 v 5.157 c 0,0.517 0.42,0.937 0.938,0.937 0.518,0 0.937,-0.42 0.937,-0.937 V 0.937 C 0.937,0.42 0.518,0 0,0" /></g><g
           transform="translate(26.25,18.2813)"
           id="g44"><path
             id="path46"
             style="fill:#007aff;fill-opacity:1;fill-rule:nonzero;stroke:none"
             d="M 0,0 H -5.312 C -5.83,0 -6.25,0.42 -6.25,0.937 c 0,0.518 0.42,0.938 0.938,0.938 H 0 c 0.518,0 0.938,-0.42 0.938,-0.938 C 0.938,0.42 0.518,0 0,0" /></g><g
           transform="translate(28.75,33.125)"
           id="g48"><path
             id="path50"
             style="fill:#007aff;fill-opacity:1;fill-rule:nonzero;stroke:none"
             d="m 0,0 c -0.518,0 -0.937,0.42 -0.937,0.937 v 2.501 h -2.5 c -0.518,0 -0.938,0.419 -0.938,0.937 0,0.518 0.42,0.937 0.938,0.937 H 0 c 0.518,0 0.938,-0.419 0.938,-0.937 V 0.937 C 0.938,0.42 0.518,0 0,0" /></g><g
           transform="translate(28.75,3.4375)"
           id="g52"><path
             id="path54"
             style="fill:#007aff;fill-opacity:1;fill-rule:nonzero;stroke:none"
             d="m 0,0 h -3.437 c -0.518,0 -0.938,0.42 -0.938,0.937 0,0.518 0.42,0.938 0.938,0.938 h 2.5 v 2.5 c 0,0.518 0.419,0.937 0.937,0.937 0.518,0 0.938,-0.419 0.938,-0.937 V 0.937 C 0.938,0.42 0.518,0 0,0" /></g><g
           transform="translate(7.9688,3.4375)"
           id="g56"><path
             id="path58"
             style="fill:#007aff;fill-opacity:1;fill-rule:nonzero;stroke:none"
             d="m 0,0 h -3.438 c -0.517,0 -0.937,0.42 -0.937,0.937 v 3.438 c 0,0.518 0.42,0.937 0.937,0.937 0.518,0 0.938,-0.419 0.938,-0.937 v -2.5 H 0 c 0.518,0 0.937,-0.42 0.937,-0.938 C 0.937,0.42 0.518,0 0,0" /></g></g></g></g></svg>