<?xml version="1.0" encoding="UTF-8" standalone="no"?>
<!-- Created with Inkscape (http://www.inkscape.org/) -->

<svg
   version="1.1"
   id="svg2"
   width="87.280533"
   height="87.2808"
   viewBox="0 0 87.280533 87.2808"
   sodipodi:docname="sprawdz_jakosc.ai"
   xmlns:inkscape="http://www.inkscape.org/namespaces/inkscape"
   xmlns:sodipodi="http://sodipodi.sourceforge.net/DTD/sodipodi-0.dtd"
   xmlns="http://www.w3.org/2000/svg"
   xmlns:svg="http://www.w3.org/2000/svg">
  <defs
     id="defs6">
    <clipPath
       clipPathUnits="userSpaceOnUse"
       id="clipPath18">
      <path
         d="M 0,65.461 H 65.46 V 0 H 0 Z"
         id="path16" />
    </clipPath>
  </defs>
  <sodipodi:namedview
     id="namedview4"
     pagecolor="#ffffff"
     bordercolor="#000000"
     borderopacity="0.25"
     inkscape:showpageshadow="2"
     inkscape:pageopacity="0.0"
     inkscape:pagecheckerboard="0"
     inkscape:deskcolor="#d1d1d1" />
  <g
     id="g8"
     inkscape:groupmode="layer"
     inkscape:label="sprawdz_jakosc"
     transform="matrix(1.3333333,0,0,-1.3333333,0,87.2808)">
    <path
       d="M 0.948,0.948 H 20.471 V 41.531 H 0.948 Z"
       style="fill:#009fe3;fill-opacity:1;fill-rule:nonzero;stroke:none"
       id="path10" />
    <g
       id="g12">
      <g
         id="g14"
         clip-path="url(#clipPath18)">
        <g
           id="g20"
           transform="translate(47.7867,24.8151)">
          <path
             d="m 0,0 c -0.311,0.245 -0.762,0.192 -1.008,-0.119 l -6.629,-8.412 -6.629,8.412 c -0.246,0.311 -0.696,0.364 -1.008,0.119 -0.311,-0.245 -0.364,-0.696 -0.119,-1.008 l 7.193,-9.126 c 0.136,-0.172 0.343,-0.273 0.563,-0.273 0.22,0 0.427,0.101 0.564,0.273 l 7.192,9.126 C 0.365,-0.696 0.311,-0.245 0,0"
             style="fill:#06282c;fill-opacity:1;fill-rule:nonzero;stroke:none"
             id="path22" />
        </g>
        <g
           id="g24"
           transform="translate(47.7867,24.8151)">
          <path
             d="m 0,0 c -0.311,0.245 -0.762,0.192 -1.008,-0.119 l -6.629,-8.412 -6.629,8.412 c -0.246,0.311 -0.696,0.364 -1.008,0.119 -0.311,-0.245 -0.364,-0.696 -0.119,-1.008 l 7.193,-9.126 c 0.136,-0.172 0.343,-0.273 0.563,-0.273 0.22,0 0.427,0.101 0.564,0.273 l 7.192,9.126 C 0.365,-0.696 0.311,-0.245 0,0 Z"
             style="fill:none;stroke:#000000;stroke-width:0.461;stroke-linecap:butt;stroke-linejoin:miter;stroke-miterlimit:10;stroke-dasharray:none;stroke-opacity:1"
             id="path26" />
        </g>
        <g
           id="g28"
           transform="translate(59.7139,20.8452)">
          <path
             d="m 0,0 h -3.825 c -0.392,0 -0.711,-0.329 -0.717,-0.721 -0.003,-0.192 0.071,-0.377 0.206,-0.514 0.135,-0.137 0.319,-0.215 0.511,-0.215 H 0 c 2.251,0 4.081,-1.83 4.081,-4.081 0,-2.125 -1.632,-3.869 -3.708,-4.058 -0.123,0.009 -4.198,0 -4.198,0 -0.396,0 -0.717,-0.344 -0.717,-0.74 0,-0.397 0.321,-0.712 0.717,-0.712 0,0 4.075,-0.008 4.198,0 2.076,-0.189 3.708,-1.933 3.708,-4.058 0,-2.25 -1.83,-4.081 -4.081,-4.081 h -20.625 c -3.613,0 -5.403,1.616 -7.134,3.179 -1.478,1.334 -3.006,2.713 -5.502,2.766 h -5.265 v 27.116 h 3.444 0.002 c 5.324,0 6.163,1.806 7.09,4.752 0.35,1.113 0.746,2.374 1.567,3.764 3.729,6.317 3.706,8.582 3.609,18.114 l -0.014,1.377 c 0.014,0.7 0.17,0.991 0.243,1.062 4.431,-0.033 8.025,-3.652 8.025,-8.097 V 18.492 c 0,-0.396 0.321,-0.717 0.718,-0.717 H 0 c 2.251,0 4.081,-1.831 4.081,-4.082 C 4.081,11.443 2.251,9.612 0,9.612 H -3.825 C -4.217,9.612 -4.536,9.283 -4.542,8.891 -4.545,8.699 -4.471,8.514 -4.336,8.377 -4.201,8.24 -4.017,8.163 -3.825,8.163 H 0 C 2.251,8.163 4.081,6.332 4.081,4.081 4.081,1.831 2.251,0 0,0 m -39.961,-19.18 h -18.088 v 39.148 h 8.327 v -22.47 c 0,-0.397 0.321,-0.718 0.717,-0.718 0.397,0 0.718,0.321 0.718,0.718 v 22.47 h 8.326 z M 5.516,4.081 c 0,2.06 -1.134,3.859 -2.811,4.806 1.677,0.948 2.811,2.747 2.811,4.806 0,3.042 -2.474,5.516 -5.516,5.516 h -13.125 v 15.644 c 0,5.255 -4.269,9.53 -9.474,9.53 h -0.003 c -0.122,0.009 -0.542,0.003 -0.949,-0.373 -0.452,-0.417 -0.692,-1.121 -0.711,-2.115 l 0.013,-1.399 c 0.096,-9.433 0.116,-11.396 -3.41,-17.37 -0.904,-1.531 -1.345,-2.935 -1.7,-4.062 -0.809,-2.574 -1.179,-3.748 -5.721,-3.748 h -0.002 -3.444 v 5.369 c 0,0.397 -0.321,0.718 -0.717,0.718 h -19.523 c -0.396,0 -0.718,-0.321 -0.718,-0.718 v -40.582 c 0,-0.397 0.322,-0.718 0.718,-0.718 h 19.523 c 0.396,0 0.717,0.321 0.717,0.718 v 5.227 h 5.25 c 1.947,-0.041 3.156,-1.133 4.555,-2.396 1.861,-1.68 3.96,-3.58 8.209,-3.548 5.894,0.048 20.3,0 20.512,0 3.042,0 5.516,2.474 5.516,5.515 0,2.044 -1.117,3.831 -2.772,4.784 1.655,0.953 2.772,2.741 2.772,4.784 0,2.06 -1.134,3.859 -2.811,4.806 1.677,0.948 2.811,2.747 2.811,4.806"
             style="fill:#06282c;fill-opacity:1;fill-rule:nonzero;stroke:none"
             id="path30" />
        </g>
        <g
           id="g32"
           transform="translate(59.7139,20.8452)">
          <path
             d="m 0,0 h -3.825 c -0.392,0 -0.711,-0.329 -0.717,-0.721 -0.003,-0.192 0.071,-0.377 0.206,-0.514 0.135,-0.137 0.319,-0.215 0.511,-0.215 H 0 c 2.251,0 4.081,-1.83 4.081,-4.081 0,-2.125 -1.632,-3.869 -3.708,-4.058 -0.123,0.009 -4.198,0 -4.198,0 -0.396,0 -0.717,-0.344 -0.717,-0.74 0,-0.397 0.321,-0.712 0.717,-0.712 0,0 4.075,-0.008 4.198,0 2.076,-0.189 3.708,-1.933 3.708,-4.058 0,-2.25 -1.83,-4.081 -4.081,-4.081 h -20.625 c -3.613,0 -5.403,1.616 -7.134,3.179 -1.478,1.334 -3.006,2.713 -5.502,2.766 h -5.265 v 27.116 h 3.444 0.002 c 5.324,0 6.163,1.806 7.09,4.752 0.35,1.113 0.746,2.374 1.567,3.764 3.729,6.317 3.706,8.582 3.609,18.114 l -0.014,1.377 c 0.014,0.7 0.17,0.991 0.243,1.062 4.431,-0.033 8.025,-3.652 8.025,-8.097 V 18.492 c 0,-0.396 0.321,-0.717 0.718,-0.717 H 0 c 2.251,0 4.081,-1.831 4.081,-4.082 C 4.081,11.443 2.251,9.612 0,9.612 H -3.825 C -4.217,9.612 -4.536,9.283 -4.542,8.891 -4.545,8.699 -4.471,8.514 -4.336,8.377 -4.201,8.24 -4.017,8.163 -3.825,8.163 H 0 C 2.251,8.163 4.081,6.332 4.081,4.081 4.081,1.831 2.251,0 0,0 Z m -39.961,-19.18 h -18.088 v 39.148 h 8.327 v -22.47 c 0,-0.397 0.321,-0.718 0.717,-0.718 0.397,0 0.718,0.321 0.718,0.718 v 22.47 h 8.326 z M 5.516,4.081 c 0,2.06 -1.134,3.859 -2.811,4.806 1.677,0.948 2.811,2.747 2.811,4.806 0,3.042 -2.474,5.516 -5.516,5.516 h -13.125 v 15.644 c 0,5.255 -4.269,9.53 -9.474,9.53 h -0.003 c -0.122,0.009 -0.542,0.003 -0.949,-0.373 -0.452,-0.417 -0.692,-1.121 -0.711,-2.115 l 0.013,-1.399 c 0.096,-9.433 0.116,-11.396 -3.41,-17.37 -0.904,-1.531 -1.345,-2.935 -1.7,-4.062 -0.809,-2.574 -1.179,-3.748 -5.721,-3.748 h -0.002 -3.444 v 5.369 c 0,0.397 -0.321,0.718 -0.717,0.718 h -19.523 c -0.396,0 -0.718,-0.321 -0.718,-0.718 v -40.582 c 0,-0.397 0.322,-0.718 0.718,-0.718 h 19.523 c 0.396,0 0.717,0.321 0.717,0.718 v 5.227 h 5.25 c 1.947,-0.041 3.156,-1.133 4.555,-2.396 1.861,-1.68 3.96,-3.58 8.209,-3.548 5.894,0.048 20.3,0 20.512,0 3.042,0 5.516,2.474 5.516,5.515 0,2.044 -1.117,3.831 -2.772,4.784 1.655,0.953 2.772,2.741 2.772,4.784 0,2.06 -1.134,3.859 -2.811,4.806 1.677,0.948 2.811,2.747 2.811,4.806 z"
             style="fill:none;stroke:#000000;stroke-width:0.461;stroke-linecap:butt;stroke-linejoin:miter;stroke-miterlimit:10;stroke-dasharray:none;stroke-opacity:1"
             id="path34" />
        </g>
        <g
           id="g36"
           transform="translate(9.3562,9.8467)">
          <path
             d="m 0,0 c 0,-0.746 0.607,-1.353 1.353,-1.353 0.746,0 1.353,0.607 1.353,1.353 0,0.746 -0.607,1.353 -1.353,1.353 C 0.607,1.353 0,0.746 0,0"
             style="fill:#06282c;fill-opacity:1;fill-rule:nonzero;stroke:none"
             id="path38" />
        </g>
        <g
           id="g40"
           transform="translate(9.3562,9.8467)">
          <path
             d="m 0,0 c 0,-0.746 0.607,-1.353 1.353,-1.353 0.746,0 1.353,0.607 1.353,1.353 0,0.746 -0.607,1.353 -1.353,1.353 C 0.607,1.353 0,0.746 0,0 Z"
             style="fill:none;stroke:#000000;stroke-width:0.461;stroke-linecap:butt;stroke-linejoin:miter;stroke-miterlimit:10;stroke-dasharray:none;stroke-opacity:1"
             id="path42" />
        </g>
      </g>
    </g>
  </g>
</svg>
