<?xml version="1.0" encoding="UTF-8" standalone="no"?>
<svg
   xmlns:dc="http://purl.org/dc/elements/1.1/"
   xmlns:cc="http://creativecommons.org/ns#"
   xmlns:rdf="http://www.w3.org/1999/02/22-rdf-syntax-ns#"
   xmlns:svg="http://www.w3.org/2000/svg"
   xmlns="http://www.w3.org/2000/svg"
   viewBox="0 0 55.833332 55.833332"
   height="55.833332"
   width="55.833332"
   xml:space="preserve"
   id="svg2"
   version="1.1"><metadata
     id="metadata8"><rdf:RDF><cc:Work
         rdf:about=""><dc:format>image/svg+xml</dc:format><dc:type
           rdf:resource="http://purl.org/dc/dcmitype/StillImage" /></cc:Work></rdf:RDF></metadata><defs
     id="defs6"><clipPath
       id="clipPath18"
       clipPathUnits="userSpaceOnUse"><path
         id="path16"
         d="M 0,41.875 H 41.875 V 0 H 0 Z" /></clipPath></defs><g
     transform="matrix(1.3333333,0,0,-1.3333333,0,55.833333)"
     id="g10"><g
       id="g12"><g
         clip-path="url(#clipPath18)"
         id="g14"><g
           transform="translate(7.8946,14.3887)"
           id="g20"><path
             id="path22"
             style="fill:#007aff;fill-opacity:1;fill-rule:nonzero;stroke:none"
             d="m 0,0 c -1.042,-1.126 -2.542,-3.075 -2.542,-4.582 0,-2.253 2.005,-2.714 2.542,-2.714 0.536,0 2.54,0.461 2.54,2.714 C 2.54,-3.07 1.042,-1.124 0,0 m 0,-9.171 c -1.834,0 -4.417,1.424 -4.417,4.589 0,3.012 3.393,6.242 3.779,6.601 0.36,0.335 0.915,0.334 1.275,0 C 1.023,1.66 4.415,-1.57 4.415,-4.582 4.415,-7.747 1.833,-9.171 0,-9.171" /></g><g
           transform="translate(20,27.8125)"
           id="g24"><path
             id="path26"
             style="fill:#007aff;fill-opacity:1;fill-rule:nonzero;stroke:none"
             d="M 0,0 H -7.812 C -8.33,0 -8.75,0.42 -8.75,0.937 c 0,0.518 0.42,0.938 0.938,0.938 H 0 c 0.518,0 0.938,-0.42 0.938,-0.938 C 0.938,0.42 0.518,0 0,0" /></g><g
           transform="translate(32.1875,27.8125)"
           id="g28"><path
             id="path30"
             style="fill:#007aff;fill-opacity:1;fill-rule:nonzero;stroke:none"
             d="m 0,0 h -6.875 c -0.518,0 -0.937,0.42 -0.937,0.937 0,0.518 0.419,0.938 0.937,0.938 H 0 c 0.518,0 0.937,-0.42 0.937,-0.938 C 0.937,0.42 0.518,0 0,0" /></g><g
           transform="translate(39.1983,27.8125)"
           id="g32"><path
             id="path34"
             style="fill:#007aff;fill-opacity:1;fill-rule:nonzero;stroke:none"
             d="m 0,0 h -1.698 c -0.518,0 -0.938,0.42 -0.938,0.937 0,0.518 0.42,0.938 0.938,0.938 H 0 c 0.442,0 0.802,0.359 0.802,0.802 v 8.709 c 0,0.442 -0.36,0.802 -0.802,0.802 h -36.521 c -0.442,0 -0.802,-0.36 -0.802,-0.802 V 2.677 c 0,-0.443 0.36,-0.802 0.802,-0.802 h 4.354 c 0.518,0 0.938,-0.42 0.938,-0.938 C -31.229,0.42 -31.649,0 -32.167,0 h -4.354 c -1.477,0 -2.677,1.201 -2.677,2.677 v 8.709 c 0,1.475 1.2,2.677 2.677,2.677 H 0 c 1.476,0 2.677,-1.202 2.677,-2.677 V 2.677 C 2.677,1.201 1.476,0 0,0" /></g><g
           transform="translate(20.9385,14.3887)"
           id="g36"><path
             id="path38"
             style="fill:#007aff;fill-opacity:1;fill-rule:nonzero;stroke:none"
             d="m 0,0 c -1.042,-1.126 -2.542,-3.075 -2.542,-4.582 0,-2.253 2.004,-2.714 2.541,-2.714 0.537,0 2.541,0.461 2.541,2.714 C 2.54,-3.07 1.041,-1.124 0,0 m -0.001,-9.171 c -1.833,0 -4.416,1.424 -4.416,4.589 0,3.012 3.392,6.242 3.779,6.601 0.359,0.334 0.915,0.334 1.274,0 0.387,-0.359 3.779,-3.589 3.779,-6.601 0,-3.165 -2.582,-4.589 -4.416,-4.589" /></g><g
           transform="translate(33.1123,14.3887)"
           id="g40"><path
             id="path42"
             style="fill:#007aff;fill-opacity:1;fill-rule:nonzero;stroke:none"
             d="m 0,0 c -1.042,-1.126 -2.542,-3.075 -2.542,-4.582 0,-2.253 2.004,-2.714 2.541,-2.714 0.537,0 2.541,0.461 2.541,2.714 C 2.54,-3.07 1.041,-1.124 0,0 m -0.001,-9.171 c -1.834,0 -4.416,1.424 -4.416,4.589 0,3.012 3.392,6.242 3.778,6.601 0.362,0.334 0.914,0.334 1.276,0 0.386,-0.359 3.778,-3.589 3.778,-6.601 0,-3.165 -2.582,-4.589 -4.416,-4.589" /></g><g
           transform="translate(40.9375)"
           id="g44"><path
             id="path46"
             style="fill:#007aff;fill-opacity:1;fill-rule:nonzero;stroke:none"
             d="m 0,0 h -40 c -0.518,0 -0.938,0.42 -0.938,0.937 0,0.518 0.42,0.938 0.938,0.938 H 0 c 0.518,0 0.937,-0.42 0.937,-0.938 C 0.937,0.42 0.518,0 0,0" /></g><g
           transform="translate(10.4688,20)"
           id="g48"><path
             id="path50"
             style="fill:#007aff;fill-opacity:1;fill-rule:nonzero;stroke:none"
             d="m 0,0 h -5.156 c -0.518,0 -0.938,0.42 -0.938,0.937 v 2.224 l -1.448,1.465 c -0.173,0.176 -0.27,0.412 -0.27,0.659 V 8.75 c 0,0.518 0.419,0.938 0.937,0.938 0.518,0 0.938,-0.42 0.938,-0.938 V 5.67 l 1.448,-1.465 c 0.173,-0.176 0.27,-0.412 0.27,-0.659 V 1.875 h 3.282 v 1.671 c 0,0.247 0.097,0.483 0.27,0.659 L 0.781,5.67 v 3.08 c 0,0.518 0.42,0.938 0.938,0.938 0.517,0 0.937,-0.42 0.937,-0.938 V 5.285 C 2.656,5.038 2.559,4.802 2.386,4.626 L 0.937,3.161 V 0.937 C 0.937,0.42 0.518,0 0,0" /></g><g
           transform="translate(35.7813,20)"
           id="g52"><path
             id="path54"
             style="fill:#007aff;fill-opacity:1;fill-rule:nonzero;stroke:none"
             d="M 0,0 H -5.312 C -5.83,0 -6.25,0.42 -6.25,0.937 V 3.156 L -7.697,4.617 C -7.871,4.793 -7.969,5.03 -7.969,5.277 V 8.75 c 0,0.518 0.42,0.938 0.938,0.938 0.517,0 0.937,-0.42 0.937,-0.938 V 5.663 l 1.448,-1.461 c 0.173,-0.176 0.271,-0.413 0.271,-0.66 V 1.875 h 3.438 v 1.671 c 0,0.247 0.097,0.483 0.27,0.659 L 0.781,5.67 v 3.08 c 0,0.518 0.42,0.938 0.938,0.938 0.517,0 0.937,-0.42 0.937,-0.938 V 5.285 C 2.656,5.038 2.559,4.802 2.386,4.626 L 0.937,3.161 V 0.937 C 0.937,0.42 0.518,0 0,0" /></g><g
           transform="translate(23.5938,20)"
           id="g56"><path
             id="path58"
             style="fill:#007aff;fill-opacity:1;fill-rule:nonzero;stroke:none"
             d="M 0,0 H -5.312 C -5.83,0 -6.25,0.42 -6.25,0.937 V 3.161 L -7.698,4.626 C -7.872,4.802 -7.969,5.038 -7.969,5.285 V 8.75 c 0,0.518 0.42,0.938 0.938,0.938 0.517,0 0.937,-0.42 0.937,-0.938 V 5.67 L -4.646,4.205 C -4.472,4.029 -4.375,3.793 -4.375,3.546 V 1.875 h 3.438 v 1.671 c 0,0.247 0.097,0.483 0.27,0.659 L 0.781,5.67 v 3.08 c 0,0.518 0.42,0.938 0.938,0.938 0.517,0 0.937,-0.42 0.937,-0.938 V 5.285 C 2.656,5.038 2.559,4.802 2.386,4.626 L 0.937,3.161 V 0.937 C 0.937,0.42 0.518,0 0,0" /></g><g
           transform="translate(7.9688,32.9688)"
           id="g60"><path
             id="path62"
             style="fill:#007aff;fill-opacity:1;fill-rule:nonzero;stroke:none"
             d="M 0,0 C -0.518,0 -0.937,0.42 -0.937,0.937 V 2.813 C -0.937,3.33 -0.518,3.75 0,3.75 0.518,3.75 0.937,3.33 0.937,2.813 V 0.937 C 0.937,0.42 0.518,0 0,0" /></g><g
           transform="translate(20.9375,32.9688)"
           id="g64"><path
             id="path66"
             style="fill:#007aff;fill-opacity:1;fill-rule:nonzero;stroke:none"
             d="m 0,0 c -0.518,0 -0.938,0.42 -0.938,0.937 v 1.876 c 0,0.517 0.42,0.937 0.938,0.937 0.518,0 0.937,-0.42 0.937,-0.937 V 0.937 C 0.937,0.42 0.518,0 0,0" /></g><g
           transform="translate(33.9063,32.9688)"
           id="g68"><path
             id="path70"
             style="fill:#007aff;fill-opacity:1;fill-rule:nonzero;stroke:none"
             d="M 0,0 C -0.518,0 -0.937,0.42 -0.937,0.937 V 2.813 C -0.937,3.33 -0.518,3.75 0,3.75 0.518,3.75 0.937,3.33 0.937,2.813 V 0.937 C 0.937,0.42 0.518,0 0,0" /></g></g></g></g></svg>