<?xml version="1.0" encoding="UTF-8" standalone="no"?>
<svg
   xmlns:dc="http://purl.org/dc/elements/1.1/"
   xmlns:cc="http://creativecommons.org/ns#"
   xmlns:rdf="http://www.w3.org/1999/02/22-rdf-syntax-ns#"
   xmlns:svg="http://www.w3.org/2000/svg"
   xmlns="http://www.w3.org/2000/svg"
   viewBox="0 0 46.666668 55.833332"
   height="55.833332"
   width="46.666668"
   xml:space="preserve"
   id="svg2"
   version="1.1"><metadata
     id="metadata8"><rdf:RDF><cc:Work
         rdf:about=""><dc:format>image/svg+xml</dc:format><dc:type
           rdf:resource="http://purl.org/dc/dcmitype/StillImage" /></cc:Work></rdf:RDF></metadata><defs
     id="defs6"><clipPath
       id="clipPath18"
       clipPathUnits="userSpaceOnUse"><path
         id="path16"
         d="M 0,41.875 H 35 V 0 H 0 Z" /></clipPath></defs><g
     transform="matrix(1.3333333,0,0,-1.3333333,0,55.833333)"
     id="g10"><g
       id="g12"><g
         clip-path="url(#clipPath18)"
         id="g14"><g
           transform="translate(10.625,10.625)"
           id="g20"><path
             id="path22"
             style="fill:#007aff;fill-opacity:1;fill-rule:nonzero;stroke:none"
             d="M 0,0 H 21.696 C 22.14,0 22.5,0.358 22.5,0.799 v 21.588 c 0,0.377 0,0.456 -0.232,0.69 l -6.312,6.047 c -0.17,0.162 -0.392,0.251 -0.626,0.251 H 0.804 C 0.36,29.375 0,29.017 0,28.576 Z M 21.696,-1.875 H -0.937 c -0.518,0 -0.938,0.42 -0.938,0.938 v 29.513 c 0,1.474 1.201,2.674 2.679,2.674 H 15.33 c 0.721,0 1.403,-0.274 1.923,-0.773 l 6.329,-6.063 c 0.793,-0.8 0.793,-1.539 0.793,-2.027 V 0.799 c 0,-1.474 -1.201,-2.674 -2.679,-2.674" /></g><g
           transform="translate(27.9766,4.375)"
           id="g24"><path
             id="path26"
             style="fill:#007aff;fill-opacity:1;fill-rule:nonzero;stroke:none"
             d="m 0,0 h -22.664 c -0.518,0 -0.938,0.42 -0.938,0.937 v 29.566 c 0,1.476 1.203,2.676 2.681,2.676 0.518,0 0.938,-0.42 0.938,-0.937 0,-0.518 -0.42,-0.938 -0.938,-0.938 -0.444,0 -0.806,-0.359 -0.806,-0.801 V 1.875 H 0 c 0.444,0 0.807,0.36 0.807,0.802 0,0.517 0.42,0.937 0.937,0.937 0.518,0 0.938,-0.42 0.938,-0.937 C 2.682,1.201 1.479,0 0,0" /></g><g
           transform="translate(23.6016)"
           id="g28"><path
             id="path30"
             style="fill:#007aff;fill-opacity:1;fill-rule:nonzero;stroke:none"
             d="m 0,0 h -21.32 c -1.258,0 -2.282,1.022 -2.282,2.278 v 28.225 c 0,1.476 1.203,2.676 2.681,2.676 0.518,0 0.938,-0.42 0.938,-0.937 0,-0.518 -0.42,-0.938 -0.938,-0.938 -0.444,0 -0.806,-0.359 -0.806,-0.801 V 2.278 c 0,-0.222 0.183,-0.403 0.407,-0.403 H 0 c 0.444,0 0.807,0.36 0.807,0.802 0,0.517 0.42,0.937 0.937,0.937 0.518,0 0.938,-0.42 0.938,-0.937 C 2.682,1.201 1.479,0 0,0" /></g><g
           transform="translate(30.4688,32.1875)"
           id="g32"><path
             id="path34"
             style="fill:#007aff;fill-opacity:1;fill-rule:nonzero;stroke:none"
             d="m 0,0 h -3.811 c -1.258,0 -2.283,1.023 -2.283,2.28 v 3.814 c 0,0.517 0.42,0.937 0.938,0.937 0.517,0 0.937,-0.42 0.937,-0.937 V 2.28 c 0,-0.223 0.184,-0.405 0.408,-0.405 H 0 c 0.518,0 0.937,-0.42 0.937,-0.938 C 0.937,0.42 0.518,0 0,0" /></g><g
           transform="translate(13.125,33.9063)"
           id="g36"><path
             id="path38"
             style="fill:#007aff;fill-opacity:1;fill-rule:nonzero;stroke:none"
             d="m 0,0 c -0.518,0 -0.937,0.42 -0.937,0.937 v 2.657 c 0,0.517 0.419,0.937 0.937,0.937 h 2.656 c 0.518,0 0.938,-0.42 0.938,-0.937 0,-0.518 -0.42,-0.938 -0.938,-0.938 H 0.937 V 0.937 C 0.937,0.42 0.518,0 0,0" /></g><g
           transform="translate(15.7812,12.1875)"
           id="g40"><path
             id="path42"
             style="fill:#007aff;fill-opacity:1;fill-rule:nonzero;stroke:none"
             d="m 0,0 h -2.656 c -0.518,0 -0.938,0.42 -0.938,0.937 v 2.657 c 0,0.517 0.42,0.937 0.938,0.937 0.517,0 0.937,-0.42 0.937,-0.937 V 1.875 H 0 c 0.518,0 0.937,-0.42 0.937,-0.938 C 0.937,0.42 0.518,0 0,0" /></g><g
           transform="translate(30.625,12.1875)"
           id="g44"><path
             id="path46"
             style="fill:#007aff;fill-opacity:1;fill-rule:nonzero;stroke:none"
             d="m 0,0 h -2.656 c -0.518,0 -0.938,0.42 -0.938,0.937 0,0.518 0.42,0.938 0.938,0.938 h 1.719 v 1.719 c 0,0.517 0.419,0.937 0.937,0.937 0.518,0 0.937,-0.42 0.937,-0.937 V 0.937 C 0.937,0.42 0.518,0 0,0" /></g></g></g></g></svg>