<svg width="50" height="26" viewBox="0 0 50 26" fill="none" xmlns="http://www.w3.org/2000/svg">
<path d="M23.1 19.4C22.7 19.2 22.3 19 22 18.8C21 18.2 20 17.5 19.2 16.6C18.8 16.2 18.5 15.7 18.2 15.2C18.1 15 18 14.7 17.9 14.5C17.8 14.2 17.7 13.9 17.6 13.5C17.5 13 17.4 12.4 17.4 11.9C17.4 11.7 17.4 11.4 17.5 11.2C17.6 10.9 17.6 10.5 17.7 10.2C17.8 9.9 17.9 9.7 18.1 9.4C18.2 9.2 18.4 8.9 18.6 8.7C18.8 8.5 18.9 8.3 19.1 8.2C19.4 8 19.7 7.8 20 7.6C20.5 7.3 21 7.1 21.5 7C22.1 6.8 22.7 6.8 23.3 6.9C23.6 6.9 23.9 7 24.2 7.1C24.5 7.2 24.7 7.3 25 7.4C25.5 7.6 25.9 8 26.4 8.3C26.8 8.7 27.2 9.1 27.6 9.5C28 10 28.3 10.5 28.6 11C28.9 11.5 29.1 12.1 29.3 12.7C29.5 13.3 29.5 13.9 29.5 14.5C29.5 15 29.3 15.6 29.2 16.1C29 16.7 28.7 17.3 28.4 17.8C28.2 18.2 27.9 18.5 27.6 18.8C27.8 18.8 28 18.9 28.1 18.9C28.5 19 28.8 19 29.2 19.1C29.5 19.1 29.8 19.2 30.1 19.2C30.3 19.2 30.6 19.2 30.8 19.2C31.7 19.2 32.7 19.2 33.6 19.1C34.4 19 35.2 19 35.9 18.9C36.7 18.8 37.5 18.7 38.3 18.6C38.5 18.6 38.6 18.5 38.8 18.5C39 18.5 39.2 18.4 39.4 18.4C39.8 18.3 40.2 18.2 40.5 18.1C40.9 18 41.3 17.9 41.7 17.8C42.1 17.7 42.5 17.6 42.9 17.4C43.2 17.3 43.5 17.2 43.8 17.1C43.7 17.1 43.6 17.1 43.4 17C42.5 16.9 41.7 16.6 40.9 16.3C40.5 16.2 40.2 16 39.9 15.8C39.7 15.7 39.5 15.6 39.2 15.5C39 15.4 38.8 15.2 38.5 15.1L38.4 15C38.3 14.9 38.1 14.8 38.1 14.6C38 14.4 38 14.1 38 13.9C38.1 13.7 38.1 13.6 38.3 13.5C38.5 13.3 38.8 13.2 39 13.3C39.2 13.3 39.4 13.4 39.6 13.5C39.8 13.6 39.9 13.7 40.1 13.7C40.3 13.8 40.4 13.9 40.6 14C41 14.2 41.5 14.4 42 14.6C42.3 14.7 42.6 14.8 42.9 14.9C43.1 15 43.4 15 43.6 15.1C44.4 15.2 45.2 15.3 46 15.3C46.4 15.3 46.9 15.3 47.3 15.3C47.5 15.3 47.7 15.3 47.8 15.3C48 15.3 48.1 15.3 48.3 15.3C48.6 15.3 48.9 15.3 49.2 15.5C49.3 15.5 49.3 15.6 49.4 15.7C49.6 15.7 49.7 15.8 49.8 16C49.9 16.1 49.9 16.1 49.9 16.2C50 16.4 50 16.6 49.9 16.9C49.9 17 49.8 17 49.8 17.1C49.7 17.2 49.6 17.3 49.4 17.4C49.3 17.5 49.2 17.5 49.2 17.6C48.9 17.8 48.6 18 48.4 18.2C48.1 18.4 47.8 18.7 47.5 18.9C46.9 19.4 46.4 19.9 45.9 20.4C45.3 21 44.7 21.5 44.1 22.1C43.6 22.6 43 23.2 42.5 23.8C42.3 24 42.2 24.2 42 24.4C41.8 24.6 41.6 24.9 41.4 25.1C41.3 25.2 41.2 25.4 41 25.4C40.8 25.5 40.5 25.5 40.3 25.5C40.1 25.4 39.9 25.2 39.7 25C39.6 24.8 39.6 24.5 39.6 24.3C39.7 23.9 39.9 23.5 40.2 23.1C40.5 22.7 40.8 22.4 41.1 22C41.6 21.4 42.2 20.9 42.7 20.3C43 20 43.4 19.6 43.8 19.3C43.2 19.5 42.6 19.7 42 19.9C41.2 20.1 40.4 20.3 39.6 20.5C39.4 20.5 39.3 20.6 39.1 20.6C38.9 20.6 38.7 20.7 38.5 20.7C38.1 20.8 37.7 20.8 37.4 20.9C36.6 21 35.7 21.1 34.9 21.2C34 21.3 33.1 21.3 32.2 21.4C31.8 21.4 31.4 21.4 31 21.4C30.6 21.4 30.2 21.4 29.9 21.4C29.7 21.4 29.6 21.4 29.4 21.3C29.2 21.3 29 21.3 28.8 21.2C28.6 21.2 28.4 21.1 28.2 21.1C27.9 21.1 27.7 21 27.4 21C27.2 20.9 27 20.9 26.8 20.8C26.6 20.8 26.4 20.7 26.2 20.7C26 20.6 25.8 20.6 25.5 20.5C24.9 20.9 24.2 21.2 23.5 21.5C22.7 21.8 21.9 22.1 21.1 22.2C20.5 22.3 20 22.3 19.4 22.3C18.8 22.3 18.3 22.2 17.7 22.2C17.1 22.1 16.6 22 16.1 21.9C15.8 21.8 15.6 21.7 15.3 21.7C14.9 21.6 14.5 21.4 14.1 21.3C13.9 21.2 13.8 21.2 13.6 21.1C13.4 21 13.2 20.9 13 20.8C12.6 20.6 12.2 20.4 11.8 20.2C11.1 19.8 10.4 19.5 9.7 19.1C9 18.7 8.3 18.2 7.7 17.7C7.5 17.6 7.4 17.4 7.2 17.3C7.1 17.1 7 17 6.8 16.8C6.6 16.7 6.4 16.5 6.3 16.4C6.1 16.2 5.9 16 5.7 15.9C5.1 15.3 4.6 14.7 4.1 14.1C3.9 13.8 3.7 13.5 3.4 13.2C3.1 12.9 2.9 12.5 2.7 12.2C2.5 11.9 2.4 11.7 2.2 11.4C2 11 1.8 10.6 1.6 10.2C1.3 9.6 1 9 0.8 8.3C0.6 7.8 0.5 7.3 0.4 6.8C0.3 6.2 0.2 5.6 0.1 4.9C0 4.3 0 3.6 0 2.9C0 2.3 0.2 1.6 0.4 1C0.5 0.6 0.9 0.399998 1.3 0.599998C1.7 0.699998 1.8 1.1 1.7 1.5C1.6 1.8 1.5 2.1 1.5 2.5C1.4 3 1.4 3.5 1.4 3.9C1.5 4.5 1.6 5.2 1.7 5.8C1.9 6.4 2 7 2.2 7.5C2.6 8.5 3 9.4 3.6 10.3C3.7 10.5 3.9 10.7 4 10.9C4.1 11.1 4.2 11.3 4.4 11.4C4.7 11.8 5 12.3 5.4 12.7C5.6 13 5.9 13.2 6.1 13.5C6.2 13.7 6.4 13.8 6.6 14C6.8 14.2 6.9 14.4 7.1 14.5C7.3 14.7 7.5 14.9 7.7 15C7.9 15.2 8.1 15.3 8.3 15.5C8.5 15.7 8.8 15.8 9 16C9.2 16.1 9.4 16.3 9.6 16.4C9.9 16.6 10.1 16.8 10.4 16.9C10.7 17.1 11 17.3 11.3 17.4C11.5 17.5 11.8 17.7 12 17.8C12.4 18 12.9 18.3 13.4 18.5C13.7 18.6 14 18.8 14.3 18.9C14.6 19 14.9 19.1 15.1 19.2C15.4 19.3 15.6 19.4 15.9 19.5C16.4 19.7 16.9 19.8 17.4 19.9C18.3 20.1 19.2 20.2 20.1 20.1C20.9 20 21.6 19.9 22.3 19.6C22.6 19.6 22.9 19.5 23.1 19.4ZM21.6 16.1C22.3 16.7 23.1 17.2 24 17.6C24.5 17.8 24.9 18 25.4 18.2C25.7 18 25.9 17.7 26.2 17.4C26.5 17 26.8 16.6 27 16.2C27.2 15.8 27.3 15.4 27.4 14.9C27.5 14.6 27.5 14.2 27.5 13.9C27.5 13.6 27.4 13.4 27.3 13.1C27.1 12.5 26.8 11.8 26.4 11.2C26.1 10.7 25.7 10.3 25.2 9.9C24.8 9.6 24.4 9.3 24 9.1C23.8 9 23.5 8.9 23.3 8.9C23.1 8.9 22.9 8.8 22.6 8.9C22.4 8.9 22.1 9 21.9 9C21.6 9.1 21.2 9.3 20.9 9.5C20.6 9.7 20.4 9.9 20.2 10.2C20.1 10.4 19.9 10.6 19.8 10.8C19.7 11 19.6 11.2 19.6 11.5C19.6 11.8 19.5 12.2 19.5 12.5C19.5 12.9 19.6 13.2 19.7 13.6C19.9 14 20 14.4 20.3 14.8C20.7 15.2 21.2 15.6 21.6 16.1Z" fill="#E50C7E"/>
</svg>
