<svg width="50" height="26" viewBox="0 0 50 26" fill="none" xmlns="http://www.w3.org/2000/svg">
<path d="M23.1 6.6C22.7 6.8 22.3 7 22 7.2C21 7.8 20 8.5 19.2 9.4C18.8 9.8 18.5 10.3 18.2 10.8C18.1 11 18 11.3 17.9 11.5C17.8 11.8 17.7 12.1 17.6 12.5C17.5 13 17.4 13.6 17.4 14.1C17.4 14.3 17.4 14.6 17.5 14.8C17.6 15.1 17.6 15.5 17.7 15.8C17.8 16.1 17.9 16.3 18.1 16.6C18.2 16.8 18.4 17.1 18.6 17.3C18.8 17.5 18.9 17.7 19.1 17.8C19.4 18 19.7 18.2 20 18.4C20.5 18.7 21 18.9 21.5 19C22.1 19.2 22.7 19.2 23.3 19.1C23.6 19.1 23.9 19 24.2 18.9C24.5 18.8 24.7 18.7 25 18.6C25.5 18.4 25.9 18 26.4 17.7C26.8 17.3 27.2 16.9 27.6 16.5C28 16 28.3 15.5 28.6 15C28.9 14.5 29.1 13.9 29.3 13.3C29.5 12.7 29.5 12.1 29.5 11.5C29.5 11 29.3 10.4 29.2 9.9C29 9.3 28.7 8.7 28.4 8.2C28.2 7.8 27.9 7.5 27.6 7.2C27.8 7.2 28 7.1 28.1 7.1C28.5 7 28.8 7 29.2 6.9C29.5 6.9 29.8 6.8 30.1 6.8C30.3 6.8 30.6 6.8 30.8 6.8C31.7 6.8 32.7 6.8 33.6 6.9C34.4 7 35.2 7 35.9 7.1C36.7 7.2 37.5 7.3 38.3 7.4C38.5 7.4 38.6 7.5 38.8 7.5C39 7.5 39.2 7.6 39.4 7.6C39.8 7.7 40.2 7.8 40.5 7.9C40.9 8 41.3 8.1 41.7 8.2C42.1 8.3 42.5 8.4 42.9 8.6C43.2 8.7 43.5 8.8 43.8 8.9C43.7 8.9 43.6 8.9 43.4 9C42.5 9.1 41.7 9.4 40.9 9.7C40.5 9.8 40.2 10 39.9 10.2C39.7 10.3 39.5 10.4 39.2 10.5C39 10.6 38.8 10.8 38.5 10.9L38.4 11C38.3 11.1 38.1 11.2 38.1 11.4C38 11.6 38 11.9 38 12.1C38.1 12.3 38.1 12.4 38.3 12.5C38.5 12.7 38.8 12.8 39 12.7C39.2 12.7 39.4 12.6 39.6 12.5C39.8 12.4 39.9 12.3 40.1 12.3C40.3 12.2 40.4 12.1 40.6 12C41 11.8 41.5 11.6 42 11.4C42.3 11.3 42.6 11.2 42.9 11.1C43.1 11 43.4 11 43.6 10.9C44.4 10.8 45.2 10.7 46 10.7C46.4 10.7 46.9 10.7 47.3 10.7C47.5 10.7 47.7 10.7 47.8 10.7C48 10.7 48.1 10.7 48.3 10.7C48.6 10.7 48.9 10.7 49.2 10.5C49.3 10.5 49.3 10.4 49.4 10.3C49.6 10.3 49.7 10.2 49.8 10C49.9 9.9 49.9 9.9 49.9 9.8C50 9.6 50 9.4 49.9 9.1C49.9 9 49.8 9 49.8 8.9C49.7 8.8 49.6 8.7 49.4 8.6C49.3 8.5 49.2 8.5 49.2 8.4C48.9 8.2 48.6 8 48.4 7.8C48.1 7.6 47.8 7.3 47.5 7.1C46.9 6.6 46.4 6.1 45.9 5.6C45.3 5 44.7 4.5 44.1 3.9C43.6 3.4 43 2.8 42.5 2.2C42.3 2 42.2 1.8 42 1.6C41.8 1.4 41.6 1.1 41.4 0.9C41.3 0.8 41.2 0.6 41 0.6C40.8 0.5 40.5 0.5 40.3 0.5C40.1 0.6 39.9 0.8 39.7 1C39.6 1.2 39.6 1.5 39.6 1.7C39.7 2.1 39.9 2.5 40.2 2.9C40.5 3.3 40.8 3.6 41.1 4C41.6 4.6 42.2 5.1 42.7 5.7C43 6 43.4 6.4 43.8 6.7C43.2 6.5 42.6 6.3 42 6.1C41.2 5.9 40.4 5.7 39.6 5.5C39.4 5.5 39.3 5.4 39.1 5.4C38.9 5.4 38.7 5.3 38.5 5.3C38.1 5.2 37.7 5.2 37.4 5.1C36.6 5 35.7 4.9 34.9 4.8C34 4.7 33.1 4.7 32.2 4.6C31.8 4.6 31.4 4.6 31 4.6C30.6 4.6 30.2 4.6 29.9 4.6C29.7 4.6 29.6 4.6 29.4 4.7C29.2 4.7 29 4.7 28.8 4.8C28.6 4.8 28.4 4.9 28.2 4.9C27.9 4.9 27.7 5 27.4 5C27.2 5.1 27 5.1 26.8 5.2C26.6 5.2 26.4 5.3 26.2 5.3C26 5.4 25.8 5.4 25.5 5.5C24.9 5.1 24.2 4.8 23.5 4.5C22.7 4.2 21.9 3.9 21.1 3.8C20.5 3.7 20 3.7 19.4 3.7C18.8 3.7 18.3 3.8 17.7 3.8C17.1 3.9 16.6 4 16.1 4.1C15.8 4.2 15.6 4.3 15.3 4.3C14.9 4.4 14.5 4.6 14.1 4.7C13.9 4.8 13.8 4.8 13.6 4.9C13.4 5 13.2 5.1 13 5.2C12.6 5.4 12.2 5.6 11.8 5.8C11.1 6.2 10.4 6.5 9.7 6.9C9 7.3 8.3 7.8 7.7 8.3C7.5 8.4 7.4 8.6 7.2 8.7C7.1 8.9 7 9 6.8 9.2C6.6 9.3 6.4 9.5 6.3 9.6C6.1 9.8 5.9 10 5.7 10.1C5.1 10.7 4.6 11.3 4.1 11.9C3.9 12.2 3.7 12.5 3.4 12.8C3.1 13.1 2.9 13.5 2.7 13.8C2.5 14.1 2.4 14.3 2.2 14.6C2 15 1.8 15.4 1.6 15.8C1.3 16.4 1 17 0.8 17.7C0.6 18.2 0.5 18.7 0.4 19.2C0.3 19.8 0.2 20.4 0.1 21.1C0 21.7 0 22.4 0 23.1C0 23.7 0.2 24.4 0.4 25C0.5 25.4 0.9 25.6 1.3 25.4C1.7 25.3 1.8 24.9 1.7 24.5C1.6 24.2 1.5 23.9 1.5 23.5C1.4 23 1.4 22.5 1.4 22.1C1.5 21.5 1.6 20.8 1.7 20.2C1.9 19.6 2 19 2.2 18.5C2.6 17.5 3 16.6 3.6 15.7C3.7 15.5 3.9 15.3 4 15.1C4.1 14.9 4.2 14.7 4.4 14.6C4.7 14.2 5 13.7 5.4 13.3C5.6 13 5.9 12.8 6.1 12.5C6.2 12.3 6.4 12.2 6.6 12C6.8 11.8 6.9 11.6 7.1 11.5C7.3 11.3 7.5 11.1 7.7 11C7.9 10.8 8.1 10.7 8.3 10.5C8.5 10.3 8.8 10.2 9 10C9.2 9.9 9.4 9.7 9.6 9.6C9.9 9.4 10.1 9.2 10.4 9.1C10.7 8.9 11 8.7 11.3 8.6C11.5 8.5 11.8 8.3 12 8.2C12.4 8 12.9 7.7 13.4 7.5C13.7 7.4 14 7.2 14.3 7.1C14.6 7 14.9 6.9 15.1 6.8C15.4 6.7 15.6 6.6 15.9 6.5C16.4 6.3 16.9 6.2 17.4 6.1C18.3 5.9 19.2 5.8 20.1 5.9C20.9 6 21.6 6.1 22.3 6.4C22.6 6.4 22.9 6.5 23.1 6.6ZM21.6 9.9C22.3 9.3 23.1 8.8 24 8.4C24.5 8.2 24.9 8 25.4 7.8C25.7 8 25.9 8.3 26.2 8.6C26.5 9 26.8 9.4 27 9.8C27.2 10.2 27.3 10.6 27.4 11.1C27.5 11.4 27.5 11.8 27.5 12.1C27.5 12.4 27.4 12.6 27.3 12.9C27.1 13.5 26.8 14.2 26.4 14.8C26.1 15.3 25.7 15.7 25.2 16.1C24.8 16.4 24.4 16.7 24 16.9C23.8 17 23.5 17.1 23.3 17.1C23.1 17.1 22.9 17.2 22.6 17.1C22.4 17.1 22.1 17 21.9 17C21.6 16.9 21.2 16.7 20.9 16.5C20.6 16.3 20.4 16.1 20.2 15.8C20.1 15.6 19.9 15.4 19.8 15.2C19.7 15 19.6 14.8 19.6 14.5C19.6 14.2 19.5 13.8 19.5 13.5C19.5 13.1 19.6 12.8 19.7 12.4C19.9 12 20 11.6 20.3 11.2C20.7 10.8 21.2 10.4 21.6 9.9Z" fill="#E50C7E"/>
</svg>
