<?xml version="1.0" encoding="utf-8"?>
<!-- Generator: Adobe Illustrator 28.1.0, SVG Export Plug-In . SVG Version: 6.00 Build 0)  -->
<svg version="1.1" id="Warstwa_1" xmlns="http://www.w3.org/2000/svg" xmlns:xlink="http://www.w3.org/1999/xlink" x="0px" y="0px"
	 viewBox="0 0 30 30" enable-background="new 0 0 30 30" xml:space="preserve">
<g>
	<path fill="#1B9DD9" d="M16.6,25.9c0,0,7.1-7.1,9.9-9.9c0.2-0.2,0.3-0.5,0.3-0.8c0-0.3-0.1-0.6-0.3-0.8c-2.8-2.8-9.9-9.9-9.9-9.9
		c-0.2-0.2-0.5-0.3-0.8-0.3c-0.3,0-0.6,0.1-0.8,0.3c-0.5,0.5-0.5,1.2,0,1.7l7.8,7.8H3.5c-0.7,0-1.2,0.5-1.2,1.2
		c0,0.7,0.5,1.2,1.2,1.2h19.2l-7.8,7.8c-0.5,0.5-0.5,1.2,0,1.7c0.2,0.2,0.5,0.3,0.8,0.3C16.1,26.2,16.4,26.1,16.6,25.9z"/>
	<path fill="#1B9DD9" d="M15.8,26.5c-0.4,0-0.8-0.2-1-0.4c-0.3-0.3-0.4-0.6-0.4-1c0-0.4,0.1-0.7,0.4-1l7.4-7.4H3.5
		c-0.8,0-1.5-0.7-1.5-1.5s0.7-1.5,1.5-1.5h18.6l-7.4-7.4c-0.3-0.3-0.4-0.6-0.4-1c0-0.4,0.2-0.8,0.4-1c0.6-0.6,1.5-0.6,2.1,0l9.9,9.9
		c0.3,0.3,0.4,0.6,0.4,1c0,0.4-0.2,0.8-0.4,1l-9.9,9.9C16.5,26.4,16.2,26.5,15.8,26.5z M3.5,14.3c-0.5,0-0.9,0.4-0.9,0.9
		c0,0.5,0.4,0.9,0.9,0.9h19.9l-8.3,8.3c-0.2,0.2-0.3,0.4-0.3,0.6c0,0.2,0.1,0.5,0.3,0.6c0.3,0.3,0.9,0.3,1.3,0l9.9-9.9
		c0.2-0.2,0.3-0.4,0.3-0.6c0-0.2-0.1-0.5-0.3-0.6l-9.9-9.9c-0.3-0.3-0.9-0.3-1.3,0c-0.2,0.2-0.3,0.4-0.3,0.6c0,0.2,0.1,0.5,0.3,0.6
		l8.3,8.3H3.5z"/>
</g>
</svg>
