<svg width="30" height="30" viewBox="0 0 30 30" fill="none" xmlns="http://www.w3.org/2000/svg">
<path d="M4.0998 16.6C4.0998 16.6 11.1998 23.7 13.9998 26.5C14.1998 26.7 14.4998 26.8 14.7998 26.8C15.0998 26.8 15.3998 26.7 15.5998 26.5C18.3998 23.7 25.4998 16.6 25.4998 16.6C25.6998 16.4 25.7998 16.1 25.7998 15.8C25.7998 15.5 25.6998 15.2 25.4998 15C24.9998 14.5 24.2998 14.5 23.7998 15L15.9998 22.8L15.9998 3.49999C15.9998 2.79999 15.4998 2.29999 14.7998 2.29999C14.0998 2.29999 13.5998 2.79999 13.5998 3.49999L13.5998 22.7L5.7998 14.9C5.2998 14.4 4.5998 14.4 4.0998 14.9C3.8998 15.1 3.7998 15.4 3.7998 15.7C3.7998 16.1 3.8998 16.4 4.0998 16.6Z" fill="#1B9DD9"/>
<path d="M3.4999 15.8C3.4999 15.4 3.6999 15 3.8999 14.8C4.1999 14.5 4.4999 14.4 4.8999 14.4C5.2999 14.4 5.5999 14.5 5.8999 14.8L13.2999 22.2L13.2999 3.5C13.2999 2.7 13.9999 2 14.7999 2C15.5999 2 16.2999 2.7 16.2999 3.5V22.1L23.6999 14.7C23.9999 14.4 24.2999 14.3 24.6999 14.3C25.0999 14.3 25.4999 14.5 25.6999 14.7C26.2999 15.3 26.2999 16.2 25.6999 16.8L15.7999 26.7C15.4999 27 15.1999 27.1 14.7999 27.1C14.3999 27.1 13.9999 26.9 13.7999 26.7L3.8999 16.8C3.5999 16.5 3.4999 16.2 3.4999 15.8ZM15.6999 3.5C15.6999 3 15.2999 2.6 14.7999 2.6C14.2999 2.6 13.8999 3 13.8999 3.5L13.8999 23.4L5.5999 15.1C5.3999 14.9 5.1999 14.8 4.9999 14.8C4.7999 14.8 4.4999 14.9 4.3999 15.1C4.0999 15.4 4.0999 16 4.3999 16.4L14.2999 26.3C14.4999 26.5 14.6999 26.6 14.8999 26.6C15.0999 26.6 15.3999 26.5 15.4999 26.3L25.3999 16.4C25.6999 16.1 25.6999 15.5 25.3999 15.1C25.1999 14.9 24.9999 14.8 24.7999 14.8C24.5999 14.8 24.2999 14.9 24.1999 15.1L15.8999 23.4L15.8999 3.5H15.6999Z" fill="#1B9DD9"/>
</svg>
