<svg width="33" height="47" viewBox="0 0 33 47" fill="none" xmlns="http://www.w3.org/2000/svg">
<g clip-path="url(#clip0_31_4)">
<path d="M11.572 20.2196C11.8216 19.9462 12.0712 19.6728 12.2982 19.479C13.0019 18.8181 13.7852 18.1798 14.6826 17.7459C15.0915 17.5177 15.5574 17.3917 16.0234 17.2657C16.2053 17.2312 16.4668 17.2194 16.6486 17.1849C16.9101 17.173 17.1716 17.1611 17.5128 17.1718C17.9335 17.2051 18.434 17.2609 18.8322 17.3738C18.9914 17.419 19.2303 17.4868 19.367 17.6116C19.5834 17.759 19.9019 17.8493 20.1183 17.9967C20.3346 18.1441 20.4713 18.2689 20.6651 18.4959C20.8017 18.6207 20.9955 18.8477 21.1096 19.0522C21.2237 19.2566 21.3604 19.3814 21.3949 19.5633C21.4864 19.8474 21.5779 20.1315 21.6695 20.4155C21.7955 20.8815 21.8418 21.3248 21.8086 21.7456C21.8323 22.2686 21.6969 22.7465 21.4817 23.2017C21.414 23.4406 21.2666 23.657 21.1192 23.8733C20.9718 24.0896 20.847 24.2263 20.6996 24.4427C20.4274 24.7957 20.0185 25.0239 19.6667 25.3544C19.2578 25.5826 18.8489 25.8108 18.44 26.039C17.9515 26.2447 17.4855 26.3707 17.0196 26.4967C16.5537 26.6227 16.0307 26.6465 15.5077 26.6703C14.9846 26.694 14.5068 26.5585 14.029 26.423C13.6308 26.3101 13.1981 26.0153 12.8225 25.8228C12.3898 25.528 11.9797 25.1536 11.6493 24.8018C11.3759 24.5522 11.2047 24.2455 11.0336 23.9388C10.9884 24.0981 10.8636 24.2348 10.841 24.3144C10.671 24.6104 10.6033 24.8493 10.4333 25.1453C10.3656 25.3842 10.2182 25.6005 10.1504 25.8395C10.1053 25.9987 10.0375 26.2377 9.99235 26.3969C9.7891 27.1137 9.56327 27.9101 9.43967 28.6494C9.33864 29.3091 9.15797 29.9462 9.07953 30.5263C8.97851 31.186 8.87748 31.8457 8.77646 32.5054C8.73129 32.6647 8.78835 32.7669 8.74318 32.9262C8.69801 33.0854 8.73249 33.2673 8.68732 33.4266C8.67663 33.7677 8.66594 34.1089 8.67783 34.3704C8.66713 34.7115 8.65644 35.0526 8.64575 35.3938C8.63505 35.7349 8.62436 36.0761 8.69331 36.4398C8.7052 36.7013 8.71709 36.9628 8.72898 37.2243C8.75156 37.1447 8.77414 37.065 8.89895 36.9283C9.18183 36.2341 9.60142 35.6648 10.021 35.0954C10.191 34.7994 10.418 34.6057 10.645 34.4119C10.7698 34.2752 10.8946 34.1385 11.042 33.9222C11.1668 33.7855 11.3713 33.6714 11.5187 33.4551L11.6209 33.398C11.7231 33.341 11.8479 33.2043 12.0072 33.2494C12.1891 33.215 12.428 33.2827 12.5873 33.3279C12.7239 33.4527 12.8036 33.4753 12.8381 33.6571C12.9522 33.8616 12.9641 34.1231 12.8393 34.2598C12.7941 34.419 12.6693 34.5557 12.5445 34.6924C12.4197 34.8291 12.3175 34.8862 12.2723 35.0455C12.1475 35.1822 12.0453 35.2392 11.9205 35.3759C11.6708 35.6493 11.3986 36.0023 11.1265 36.3554C10.9791 36.5717 10.8317 36.788 10.6843 37.0044C10.5595 37.1411 10.4917 37.38 10.3669 37.5167C10.1066 38.1312 9.84632 38.7457 9.66566 39.3829C9.57532 39.7014 9.46241 40.0996 9.37208 40.4182C9.32691 40.5774 9.28174 40.7367 9.25916 40.8164C9.21399 40.9756 9.19141 41.0553 9.14625 41.2146C9.0785 41.4535 9.01075 41.6924 8.78372 41.8861C8.76114 41.9658 8.6815 41.9432 8.57927 42.0003C8.53411 42.1595 8.43189 42.2166 8.25002 42.2511C8.1478 42.3081 8.1478 42.3081 8.06816 42.2855C7.8863 42.32 7.72702 42.2748 7.51069 42.1275C7.43105 42.1049 7.45363 42.0252 7.37399 42.0026C7.31694 41.9004 7.25988 41.7982 7.22541 41.6163C7.16835 41.5141 7.19093 41.4345 7.11129 41.4119C7.01976 41.1278 6.92824 40.8437 6.81412 40.6393C6.72259 40.3552 6.55143 40.0485 6.4599 39.7644C6.1972 39.1737 5.91192 38.6626 5.62664 38.1515C5.2843 37.5381 5.0216 36.9474 4.67926 36.3341C4.39398 35.8229 4.05165 35.2096 3.68673 34.6759C3.57261 34.4715 3.43592 34.3467 3.3218 34.1422C3.20769 33.9378 3.01394 33.7107 2.89983 33.5063C2.84277 33.4041 2.70608 33.2793 2.75124 33.12C2.71677 32.9381 2.78452 32.6992 2.82969 32.5399C2.95449 32.4032 3.15893 32.2891 3.36338 32.175C3.54524 32.1405 3.78416 32.2083 3.94344 32.2535C4.23941 32.4234 4.5128 32.673 4.76361 33.0023C5.01442 33.3315 5.18559 33.6382 5.4364 33.9675C5.80132 34.5012 6.06401 35.0919 6.42893 35.6256C6.6001 35.9323 6.82833 36.3412 6.97691 36.7275C6.95313 36.2045 6.92935 35.6815 6.90557 35.1585C6.92696 34.4762 6.94834 33.7939 6.96973 33.1116C7.0149 32.9523 6.95784 32.8501 7.00301 32.6908C7.04817 32.5316 7.0137 32.3497 7.05887 32.1904C7.06956 31.8493 7.15989 31.5307 7.148 31.2692C7.24903 30.6095 7.37263 29.8702 7.47366 29.2105C7.59727 28.4712 7.80052 27.7544 7.92412 27.0151C8.01446 26.6965 8.10479 26.3779 8.19512 26.0594C8.28545 25.7408 8.37579 25.4223 8.44354 25.1834C8.4887 25.0241 8.51128 24.9444 8.63609 24.8077C8.68126 24.6485 8.72642 24.4892 8.85123 24.3525C8.89639 24.1932 9.0212 24.0565 9.06637 23.8972C9.13411 23.6583 9.25892 23.5216 9.32667 23.2827C9.45147 23.146 9.49664 22.9867 9.62145 22.85C9.66661 22.6908 9.79142 22.5541 9.83658 22.3948C9.96139 22.2581 10.0066 22.0988 10.1539 21.8825C9.97089 21.3143 9.89005 20.6891 9.80921 20.0639C9.75096 19.359 9.69271 18.6541 9.79373 17.9944C9.84959 17.494 9.96251 17.0958 10.098 16.618C10.2335 16.1402 10.4261 15.7645 10.5616 15.2867C10.7767 14.8315 10.9692 14.4558 11.1618 14.0802C11.3092 13.8639 11.434 13.7272 11.5017 13.4883C11.6717 13.1923 11.9213 12.9189 12.0913 12.6229C12.2161 12.4862 12.2387 12.4066 12.3635 12.2699C12.4883 12.1332 12.6131 11.9965 12.7379 11.8598C12.9875 11.5864 13.2371 11.313 13.4867 11.0396C13.9634 10.5725 14.3604 10.0828 14.837 9.61564C15.3137 9.1485 15.8699 8.70394 16.4036 8.33902C16.5284 8.20232 16.7103 8.16785 16.8351 8.03115C17.017 7.99668 17.1192 7.93962 17.3236 7.82551C17.4484 7.68882 17.6529 7.5747 17.7551 7.51765C17.9595 7.40353 18.164 7.28942 18.2888 7.15273C18.9021 6.81039 19.4929 6.54769 20.0836 6.28499C20.3677 6.19346 20.6518 6.10193 20.9585 5.93077C21.2651 5.7596 21.6289 5.69065 21.9129 5.59912C22.197 5.50759 22.3789 5.47312 22.663 5.38159C23.0267 5.31264 23.3904 5.2437 23.7541 5.17475C24.2997 5.07133 24.8453 4.96791 25.448 4.96672C25.8913 4.92035 26.3121 4.95363 26.7329 4.98691C27.2333 5.04276 27.7337 5.09862 28.3138 5.17707C28.8142 5.23292 29.3717 5.39101 29.9291 5.54909C30.407 5.68459 30.9193 6.00195 31.352 6.29672C31.6479 6.46669 31.7169 6.83042 31.4673 7.10381C31.2973 7.39978 30.9562 7.38909 30.6602 7.21912C30.4438 7.07173 30.2275 6.92434 29.909 6.83401C29.5333 6.64145 29.1351 6.52854 28.8166 6.43821C28.3162 6.38235 27.7361 6.30391 27.2357 6.24805C26.7127 6.27183 26.2123 6.21597 25.7689 6.26233C24.8822 6.35506 24.0751 6.47037 23.2228 6.74495C23.041 6.77943 22.8365 6.89354 22.6547 6.92801C22.4728 6.96249 22.291 6.99696 22.1661 7.13365C21.7798 7.28224 21.3139 7.40824 20.905 7.63647C20.6209 7.728 20.3939 7.92175 20.1098 8.01328C19.9279 8.04775 19.8031 8.18445 19.5987 8.29856C19.3943 8.41267 19.2124 8.44714 19.0876 8.58384C18.8831 8.69795 18.6787 8.81206 18.5539 8.94876C18.3494 9.06287 18.2246 9.19957 18.0202 9.31368C17.8158 9.42779 17.6684 9.64413 17.4639 9.75824C17.3391 9.89493 17.1347 10.009 17.0099 10.1457C16.7828 10.3395 16.5784 10.4536 16.431 10.6699C16.204 10.8637 15.9769 11.0574 15.8296 11.2738C15.7048 11.4105 15.4777 11.6042 15.3529 11.7409C15.1033 12.0143 14.7515 12.3448 14.4793 12.6978C14.3319 12.9141 14.1049 13.1079 13.9575 13.3242C13.8101 13.5405 13.6627 13.7569 13.5379 13.8936C13.3905 14.1099 13.2657 14.2466 13.1183 14.4629C12.8461 14.816 12.6536 15.1916 12.461 15.5672C12.0985 16.2388 11.8156 16.933 11.692 17.6723C11.591 18.332 11.5125 18.912 11.5934 19.5373C11.5256 19.7762 11.5375 20.0377 11.572 20.2196ZM14.5388 19.7702C13.9029 20.1922 13.324 20.7164 12.8022 21.3428C12.53 21.6958 12.2804 21.9692 12.0082 22.3223C12.0998 22.6063 12.2935 22.8334 12.4647 23.14C12.7155 23.4693 12.9663 23.7985 13.2397 24.0481C13.5131 24.2978 13.8091 24.4677 14.1847 24.6603C14.401 24.8077 14.7196 24.898 14.9585 24.9657C15.1974 25.0335 15.3793 24.999 15.6408 24.9871C16.1638 24.9634 16.789 24.8825 17.3571 24.6995C17.8231 24.5735 18.232 24.3452 18.6635 24.0374C18.9927 23.7866 19.322 23.5358 19.5716 23.2624C19.6964 23.1257 19.8438 22.9093 19.8889 22.7501C19.9341 22.5908 20.0589 22.4541 20.047 22.1926C20.0922 22.0333 20.0803 21.7718 20.1255 21.6125C20.1136 21.351 20.0446 20.9873 19.9531 20.7032C19.8616 20.4191 19.7474 20.2147 19.5537 19.9877C19.417 19.8629 19.3029 19.6584 19.1662 19.5336C19.0295 19.4088 18.8928 19.284 18.6539 19.2162C18.415 19.1485 18.119 18.9785 17.8801 18.9108C17.5615 18.8204 17.3 18.8323 16.9589 18.8216C16.5951 18.8906 16.254 18.8799 15.8677 19.0285C15.4588 19.2567 15.0273 19.5646 14.5388 19.7702Z" fill="#E50C7E"/>
</g>
<defs>
<clipPath id="clip0_31_4">
<rect width="41.3896" height="21.5226" fill="white" transform="matrix(-0.272811 0.962068 0.962068 0.272811 11.5322 0.332397)"/>
</clipPath>
</defs>
</svg>
