<?xml version="1.0" encoding="utf-8"?>
<!-- Generator: Adobe Illustrator 28.1.0, SVG Export Plug-In . SVG Version: 6.00 Build 0)  -->
<svg version="1.1" id="Tryb_izolacji" xmlns="http://www.w3.org/2000/svg" xmlns:xlink="http://www.w3.org/1999/xlink" x="0px"
	 y="0px" viewBox="0 0 199.5 51.6" enable-background="new 0 0 199.5 51.6" xml:space="preserve">
<path fill-rule="evenodd" clip-rule="evenodd" fill="#009FE3" d="M27,4.1c12,0,21.7,9.7,21.7,21.7c0,12-9.7,21.7-21.7,21.7
	c-12,0-21.7-9.7-21.7-21.7C5.2,13.8,15,4.1,27,4.1"/>
<path fill-rule="evenodd" clip-rule="evenodd" fill="#E6007E" d="M85.5,7.1c10.9,0,19.7,8.8,19.7,19.7c0,10.9-8.8,19.7-19.7,19.7
	c-10.9,0-19.7-8.8-19.7-19.7C65.9,16,74.7,7.1,85.5,7.1"/>
<path fill-rule="evenodd" clip-rule="evenodd" fill="#FFED00" d="M175.1,7.1c10.9,0,19.7,8.8,19.7,19.7c0,10.9-8.8,19.7-19.7,19.7
	c-10.9,0-19.7-8.8-19.7-19.7C155.5,16,164.3,7.1,175.1,7.1"/>
<path d="M52.3,25.9v25.8H26.1c-7.1,0-13.3-2.5-18.4-7.5C2.6,39.1,0,33,0,25.9c0-7.1,2.6-13.2,7.7-18.3C12.9,2.5,19,0,26.1,0
	c7.1,0,13.3,2.5,18.5,7.6C49.8,12.6,52.3,18.7,52.3,25.9 M41.4,41.4V25.9c0-4.3-1.5-7.9-4.4-11c-2.9-3.1-6.5-4.6-10.8-4.6
	c-4.3,0-7.9,1.5-10.8,4.6c-2.9,3.1-4.4,6.7-4.4,11c0,4.3,1.5,7.9,4.4,10.9c2.9,3,6.6,4.5,10.8,4.5H41.4z M109.7,25.9v25.8H83.5
	c-7.1,0-13.3-2.5-18.4-7.5c-5.1-5-7.7-11.1-7.7-18.2c0-7.1,2.6-13.2,7.7-18.3C70.2,2.5,76.4,0,83.5,0c7.1,0,13.3,2.5,18.5,7.6
	C107.1,12.6,109.7,18.7,109.7,25.9 M98.7,41.4V25.9c0-4.3-1.5-7.9-4.4-11c-2.9-3.1-6.5-4.6-10.8-4.6c-4.3,0-7.9,1.5-10.8,4.6
	c-2.9,3.1-4.4,6.7-4.4,11c0,4.3,1.5,7.9,4.4,10.9c2.9,3,6.5,4.5,10.8,4.5H98.7z M125.6,25.8c0-4.3,1.5-7.9,4.5-10.9
	c3-3,6.6-4.5,10.8-4.5h5c2.8,0,5.3-1,7.3-3c2-2,3-4.4,3-7.3h-15.2c-7.1,0-13.3,2.5-18.4,7.5c-5.1,5-7.7,11.1-7.7,18.2v25.9
	c3,0,5.5-1.1,7.6-3.2c2.1-2.1,3.2-4.7,3.2-7.6V25.8z M199.5,25.9v25.8h-26.2c-7.1,0-13.3-2.5-18.4-7.5c-5.1-5-7.7-11.1-7.7-18.2
	c0-7.1,2.6-13.2,7.7-18.3C160,2.5,166.1,0,173.3,0c7.1,0,13.3,2.5,18.5,7.6C196.9,12.6,199.5,18.7,199.5,25.9 M188.5,41.4V25.9
	c0-4.3-1.5-7.9-4.4-11c-2.9-3.1-6.5-4.6-10.8-4.6c-4.3,0-7.9,1.5-10.8,4.6c-2.9,3.1-4.4,6.7-4.4,11c0,4.3,1.5,7.9,4.4,10.9
	c2.9,3,6.6,4.5,10.8,4.5H188.5z"/>
</svg>
