<?xml version="1.0" encoding="utf-8"?>
<!-- Generator: Adobe Illustrator 28.1.0, SVG Export Plug-In . SVG Version: 6.00 Build 0)  -->
<svg version="1.1" id="Warstwa_1" xmlns="http://www.w3.org/2000/svg" xmlns:xlink="http://www.w3.org/1999/xlink" x="0px" y="0px"
	 viewBox="0 0 30 30" style="enable-background:new 0 0 30 30;" xml:space="preserve">
<style type="text/css">
	.st0{fill:#1A73E8;}
	.st1{fill:#EA4335;}
	.st2{fill:#4285F4;}
	.st3{fill:#FBBC04;}
	.st4{fill:#34A853;}
</style>
<g>
	<path class="st0" d="M18,3.9c-0.8-0.3-1.7-0.4-2.6-0.4c-2.6,0-4.9,1.2-6.4,3l4,3.3L18,3.9z"/>
	<path class="st1" d="M9.1,6.5c-1.2,1.5-2,3.3-2,5.4c0,1.6,0.3,2.8,0.8,4l5.1-6L9.1,6.5z"/>
	<path class="st2" d="M15.5,8.7c1.8,0,3.2,1.4,3.2,3.2c0,0.8-0.3,1.5-0.8,2.1c0,0,2.5-3,5-5.9c-1-2-2.8-3.4-4.9-4.1l-5,5.9
		C13.6,9.1,14.5,8.7,15.5,8.7"/>
	<path class="st3" d="M15.5,15.1c-1.8,0-3.2-1.4-3.2-3.2c0-0.8,0.3-1.5,0.7-2l-5.1,6c0.9,1.9,2.3,3.5,3.8,5.4l6.2-7.3
		C17.3,14.6,16.5,15.1,15.5,15.1"/>
	<path class="st4" d="M17.8,23.3c2.8-4.4,6-6.3,6-11.4c0-1.4-0.3-2.7-0.9-3.9L11.8,21.3c0.5,0.6,1,1.3,1.4,2
		c1.7,2.6,1.2,4.2,2.3,4.2S16.1,25.9,17.8,23.3"/>
</g>
</svg>
