<svg width="356" height="677" viewBox="0 0 356 677" fill="none" xmlns="http://www.w3.org/2000/svg">
<path d="M303.3 163.1L303.4 174.4L296 160.7L303.3 163.1Z" fill="#DCE1ED"/>
<path d="M304.1 163.1L304.2 174.4L319.3 159.7L314.7 159L304.1 163.1Z" fill="#DCE1ED"/>
<path d="M304.3 175.1L304.5 185L311.1 181.7L304.3 175.1Z" fill="#DCE1ED"/>
<path d="M303.499 175.5L303.699 185.2L297.899 181L303.499 175.5Z" fill="#DCE1ED"/>
<path d="M302.9 175L297.2 180.3L288.1 168.8L293.4 157.1L303.5 160.7L313.4 156.8L314.2 158.3L303.6 162.4L294.6 159.3L293 167.9L302.9 175Z" fill="#DCE1ED"/>
<path d="M294 156.1L303.6 159.6L313 155.8L312.5 154.9L303.6 158.4L297.3 154.8H294.7L294 156.1Z" fill="#DCE1ED"/>
<path d="M311.5 153.2L303.7 156.2L301 154.5C300.3 154.6 299.1 154.6 298.7 154.6L303.7 157.4L312 154L311.5 153.2Z" fill="#DCE1ED"/>
<path d="M300.3 154L296.8 151.8L295.1 154.1C295.1 154 299.7 154 300.3 154Z" fill="#DCE1ED"/>
<path d="M296.4 140.8L296 147.3L279.3 148.7L294.1 140.2L296.4 140.8Z" fill="#DCE1ED"/>
<path d="M310.7 149.3L315.4 150.3L327.1 146.6L323.1 156L320 158.8L319.6 155.1L310.7 149.3Z" fill="#DCE1ED"/>
<path d="M324.399 154.9L328.699 151.1L327.799 147.2L324.399 154.9Z" fill="#DCE1ED"/>
<path d="M297.8 182L303.7 186.1L304.2 195.4L297 185.3L297.8 182Z" fill="#DCE1ED"/>
<path d="M304.6 185.9L304.9 193.7L311.4 182.4L304.6 185.9Z" fill="#DCE1ED"/>
<path d="M239.5 257.2L256.4 279.5L242.6 287.4L239.5 257.2Z" fill="#DCE1ED"/>
<path d="M242.7 288.1L256.3 280.4L243.3 304.9L242.7 288.1Z" fill="#DCE1ED"/>
<path d="M256.6 281.5L244 304.8L253.1 302L256.6 281.5Z" fill="#DCE1ED"/>
<path d="M253.899 301.9L262.899 305.8L257.399 281.6L253.899 301.9Z" fill="#DCE1ED"/>
<path d="M243.899 305.6L253.099 302.7L257.299 315.1L243.899 305.6Z" fill="#DCE1ED"/>
<path d="M253.899 302.8L258.199 315.7L262.999 306.7L253.899 302.8Z" fill="#DCE1ED"/>
<path d="M258 280.9L263.7 305.8L274.4 302.4L275 296L258 280.9Z" fill="#DCE1ED"/>
<path d="M263.8 306.5L274.4 303.2L266.6 318.6L263.8 306.5Z" fill="#DCE1ED"/>
<path d="M263.399 307.6L258.899 316.1L265.999 318.9L263.399 307.6Z" fill="#DCE1ED"/>
<path d="M274.9 303.6L267.8 318.2L279.8 313.8L274.9 303.6Z" fill="#DCE1ED"/>
<path d="M275.6 296.5L275.2 302.6L279.1 310.4L284.4 301.1L275.6 296.5Z" fill="#DCE1ED"/>
<path d="M275.7 295.6L284.6 300.3L286.9 289.3L275.7 295.6Z" fill="#DCE1ED"/>
<path d="M257.5 279.5L274.7 294.6L270.7 279.3L257.5 279.5Z" fill="#DCE1ED"/>
<path d="M257.3 278.7L270.5 278.6L267.8 269.8L256.6 275L257.3 278.7Z" fill="#DCE1ED"/>
<path d="M271.6 279.6L275.6 294.7L286.2 289L271.6 279.6Z" fill="#DCE1ED"/>
<path d="M268.5 268.6L271.4 278.6L285.9 288.1L268.5 268.6Z" fill="#DCE1ED"/>
<path d="M285 286L269.1 268L273.9 263L285 286Z" fill="#DCE1ED"/>
<path d="M286.899 288.4L274.899 263.3L292.099 275.8L286.899 288.4Z" fill="#DCE1ED"/>
<path d="M243.4 306.1L250.2 310.9L245.8 322.2L238.6 341.4L243.4 306.1Z" fill="#DCE1ED"/>
<path d="M250.8 311.5L246.6 322.4L245.6 346.5L255.1 314.5L250.8 311.5Z" fill="#DCE1ED"/>
<path d="M255.7 315L245.8 348.6L249.6 354.2L249.1 348.6L257.5 316.2L255.7 315Z" fill="#DCE1ED"/>
<path d="M245.6 324.9L244.8 348.4L242.3 358.8L239 342.4L245.6 324.9Z" fill="#DCE1ED"/>
<path d="M240.4 353.8L241.8 360.7L238.7 373.9L236.7 362.4L240.4 353.8Z" fill="#DCE1ED"/>
<path d="M245.3 349.4L249 354.7L239.7 373.2L245.3 349.4Z" fill="#DCE1ED"/>
<path d="M249.5 355.5L239.2 375.9L241.5 392.8L250.1 356.6L249.5 355.5Z" fill="#DCE1ED"/>
<path d="M238.4 343.3L240.1 352.6L232.6 369.7L238.4 343.3Z" fill="#DCE1ED"/>
<path d="M235.8 364.1L232.3 372.3L230.8 385.7L233.8 379.5L235.8 364.1Z" fill="#DCE1ED"/>
<path d="M236.4 365L231.3 406.5L235.5 390.3L238.4 376.5L236.4 365Z" fill="#DCE1ED"/>
<path d="M238.7 378.3L236.1 390.7L236.3 404.9L241 395.2L238.7 378.3Z" fill="#DCE1ED"/>
<path d="M235.5 393.3L231 410.7L235.5 405.8V393.3Z" fill="#DCE1ED"/>
<path d="M230.5 412.4L235.6 406.8L226.5 434.6L230.5 412.4Z" fill="#DCE1ED"/>
<path d="M230.6 387.5L233.7 381.5L230.9 403.7L223.8 409.6L230.6 387.5Z" fill="#DCE1ED"/>
<path d="M224 410.4L230.8 404.9L229.7 412.3L223.1 426.1L224 410.4Z" fill="#DCE1ED"/>
<path d="M223 412.3L221.9 430.1L215.7 438.3L223 412.3Z" fill="#DCE1ED"/>
<path d="M228.999 416.2L224.799 439.1L217.899 452L219.399 443.5L222.999 428.2L228.999 416.2Z" fill="#DCE1ED"/>
<path d="M216.8 438.4L220.8 433L218.6 442.5L216.8 438.4Z" fill="#DCE1ED"/>
<path d="M216.1 439.3L216.8 440.8L206.7 474.2L206.6 464.7L216.1 439.3Z" fill="#DCE1ED"/>
<path d="M205.199 468.2V478.8L197.899 499.8L199.499 481.4L205.199 468.2Z" fill="#DCE1ED"/>
<path d="M217.4 442.5L218.3 444.6L211.2 473.7L207.6 476.6L217.4 442.5Z" fill="#DCE1ED"/>
<path d="M235.4 409.9L226.1 438.9L230.8 440L235.4 409.9Z" fill="#DCE1ED"/>
<path d="M225.7 439.8L230.8 441L213.1 470.5L216.9 456.6L225.7 439.8Z" fill="#DCE1ED"/>
<path d="M228.3 447.5L213.3 472.7L206.8 495.9L219.9 474.8L228.3 447.5Z" fill="#DCE1ED"/>
<path d="M223.2 468.8L231.8 441.2L241 432.4L233.8 451.4L223.2 468.8Z" fill="#DCE1ED"/>
<path d="M232.8 455.3L208.8 496.7L224.2 482.6L232.8 455.3Z" fill="#DCE1ED"/>
<path d="M206.5 479.2L210.7 475.8L199.1 513.9L197.6 505.3L206.5 479.2Z" fill="#DCE1ED"/>
<path d="M231.899 439.6L241.699 430.5L236.299 409.4L231.899 439.6Z" fill="#DCE1ED"/>
<path d="M236.3 406.6L239.8 419.4L250.5 386.4L242 394.7L236.3 406.6Z" fill="#DCE1ED"/>
<path d="M249.7 362L242.1 393.6L250.7 385.1L249.7 362Z" fill="#DCE1ED"/>
<path d="M250.3 360.1L258.6 357L251.4 382.8L250.3 360.1Z" fill="#DCE1ED"/>
<path d="M259.8 356.6L273.7 353.4L265.5 361.5L259.8 356.6Z" fill="#DCE1ED"/>
<path d="M259.3 357.3L264.8 362.1L262.4 394.2L259.3 357.3Z" fill="#DCE1ED"/>
<path d="M266.1 362.1L273.7 354.4L268.8 387.5L266.1 362.1Z" fill="#DCE1ED"/>
<path d="M258.7 359.5L251.5 385.7L256.3 416.8L260.5 384.6L258.7 359.5Z" fill="#DCE1ED"/>
<path d="M265.5 364.3L263.1 398.9L272.5 418.4L268.1 388.2L265.5 364.3Z" fill="#DCE1ED"/>
<path d="M251.199 389.4L247.399 438.9L252.699 449.9L255.699 419.8L251.199 389.4Z" fill="#DCE1ED"/>
<path d="M249.9 390.7L240.3 420.8L242.2 428.2L249.9 390.7Z" fill="#DCE1ED"/>
<path d="M250.1 393L242.8 429.7L246.4 437.1L250.1 393Z" fill="#DCE1ED"/>
<path d="M243 432.6L252 451.4L241.3 463.1L243 432.6Z" fill="#DCE1ED"/>
<path d="M241.399 465.2L252.899 452.4L254.099 451.8L247.699 498.3L245.699 496.3L241.399 465.2Z" fill="#DCE1ED"/>
<path d="M241.299 440.2L237.399 473.1L236.899 501.3L239.699 466.3L241.299 440.2Z" fill="#DCE1ED"/>
<path d="M240.799 471.9L237.899 519.8L243.799 496.8L240.799 471.9Z" fill="#DCE1ED"/>
<path d="M245 500.8L246.9 502.6L237.7 543.1L241.3 514.5L245 500.8Z" fill="#DCE1ED"/>
<path d="M205.3 502.4L222.3 487.3L195.3 549.6L201.1 517.8L205.3 502.4Z" fill="#DCE1ED"/>
<path d="M193.5 559.8L193.7 576.4L217.4 504.4L193.5 559.8Z" fill="#DCE1ED"/>
<path d="M196.3 512.1L197.5 516.8L188.4 538.9L188 533.9L196.3 512.1Z" fill="#DCE1ED"/>
<path d="M199.3 517.6L192.2 552.3L195.9 526.5L199.3 517.6Z" fill="#DCE1ED"/>
<path d="M195.8 504.5L178.7 520.9L197.9 484.5L195.8 504.5Z" fill="#DCE1ED"/>
<path d="M175.7 527.8L166 543.7L176.8 533.9L189.6 514.6L175.7 527.8Z" fill="#DCE1ED"/>
<path d="M164.599 549.2L174.099 540.8L126.399 605.5L164.599 549.2Z" fill="#DCE1ED"/>
<path d="M185.7 537.6L186 543L142.3 619.6L175.3 553L185.7 537.6Z" fill="#DCE1ED"/>
<path d="M174.399 548.6L185.599 532.3L193.999 512.5L180.499 534.2L174.399 548.6Z" fill="#DCE1ED"/>
<path d="M260.599 389.7L253.899 449.8L260.799 424.4L260.599 389.7Z" fill="#DCE1ED"/>
<path d="M261.399 392.5L268.599 463.5L261.799 414.6L261.399 392.5Z" fill="#DCE1ED"/>
<path d="M263.3 401.2L272.7 421.4L267.9 444.2L263.3 401.2Z" fill="#DCE1ED"/>
<path d="M273 424.8L275 435.1L270.4 450.9L268.7 446.5L273 424.8Z" fill="#DCE1ED"/>
<path d="M269.2 389.2L279.3 421.3L275.1 429.5L269.2 389.2Z" fill="#DCE1ED"/>
<path d="M274.3 356.2L269.7 387.9L278.3 415.7L274.3 356.2Z" fill="#DCE1ED"/>
<path d="M279.5 415L274.7 351.1L276.3 338.7L282.8 392.8L279.5 415Z" fill="#DCE1ED"/>
<path d="M277.3 339.9L283.2 387.3L283.1 357.4L277.3 339.9Z" fill="#DCE1ED"/>
<path d="M273.6 352.5L275.3 339.7L266.3 354.2L273.6 352.5Z" fill="#DCE1ED"/>
<path d="M283.9 357.6L287.6 359.5L289.4 390.7L285.5 414L280.2 420.7L280.1 417.8L284.2 391.9L283.9 357.6Z" fill="#DCE1ED"/>
<path d="M283.8 356.4L287.6 358.6L279.1 342.7L283.8 356.4Z" fill="#DCE1ED"/>
<path d="M277 336.9L287.5 356.5L287.6 351.1L279.3 322.5L277 336.9Z" fill="#DCE1ED"/>
<path d="M265.299 354.4L276.099 336.8L279.699 314.8L266.199 338.5L259.399 356.1L265.299 354.4Z" fill="#DCE1ED"/>
<path d="M274.3 316.8L278.5 315.2L267.7 334.3L274.3 316.8Z" fill="#DCE1ED"/>
<path d="M273.3 317.1L260.2 351.9L267 319.5L273.3 317.1Z" fill="#DCE1ED"/>
<path d="M258.399 316.8L265.999 319.7L259.099 353.6L258.399 316.8Z" fill="#DCE1ED"/>
<path d="M257.699 318.9L258.399 356.3L250.399 359.3L257.699 318.9Z" fill="#DCE1ED"/>
<path d="M256.3 323.2L250.4 355.1L249.8 348.9L256.3 323.2Z" fill="#DCE1ED"/>
<path d="M280.3 323.1L288.3 350.1L288.7 334.9L280.3 323.1Z" fill="#DCE1ED"/>
<path d="M279.7 320.9L293.5 340.3L280.6 315.1L279.7 320.9Z" fill="#DCE1ED"/>
<path d="M289.6 336L289.3 352L303.5 374.6L295.4 344.6L289.6 336Z" fill="#DCE1ED"/>
<path d="M296.5 345.4L300.3 347.6L303.1 369.7L296.5 345.4Z" fill="#DCE1ED"/>
<path d="M279.6 311.3L296.4 344L300.4 346.4L280.9 309L279.6 311.3Z" fill="#DCE1ED"/>
<path d="M281.399 308.2L300.699 344.7L284.899 301.7L281.399 308.2Z" fill="#DCE1ED"/>
<path d="M239.899 256.5L255.899 277.7L244.099 252.6L239.899 256.5Z" fill="#DCE1ED"/>
<path d="M245.3 253.6L256.3 276.9L253.1 261.1L245.3 253.6Z" fill="#DCE1ED"/>
<path d="M253.8 261L256.4 274.1L267.6 269L267.3 267.4L258.3 259.6L253.8 261Z" fill="#DCE1ED"/>
<path d="M268.5 267.3L259.2 259.5L266.5 257L273.6 262.3L268.5 267.3Z" fill="#DCE1ED"/>
<path d="M268.1 257.5L292 274.8L288.1 267.3L268.1 257.5Z" fill="#DCE1ED"/>
<path d="M253.5 260.4L266.2 256.4L255.4 240.5L253.5 260.4Z" fill="#DCE1ED"/>
<path d="M252.9 259.8L244.8 252.1L254.5 240.6L252.9 259.8Z" fill="#DCE1ED"/>
<path d="M244.3 251.4L254 239.9L239.6 237.5L244.3 251.4Z" fill="#DCE1ED"/>
<path d="M256.1 240.2L266.9 256.2L287.8 266.4L282.5 248.6L256.1 240.2Z" fill="#DCE1ED"/>
<path d="M284.399 252.7L288.499 266L294.799 258.6L284.399 252.7Z" fill="#DCE1ED"/>
<path d="M289 267.5L292.7 274.7L301.3 271.7L298.7 269.3L289 267.5Z" fill="#DCE1ED"/>
<path d="M289 266.7L295.3 259.2L308.1 270.4L289 266.7Z" fill="#DCE1ED"/>
<path d="M299.8 269.5L309.4 271.4L307.2 276.1L299.8 269.5Z" fill="#DCE1ED"/>
<path d="M301.8 272.2L293.2 275.3L306.6 276.4L301.8 272.2Z" fill="#DCE1ED"/>
<path d="M309.8 272.2L307.8 276.4L313.6 278.4L309.8 272.2Z" fill="#DCE1ED"/>
<path d="M310.3 271.7L314.5 278.5L323.1 278.4L310.3 271.7Z" fill="#DCE1ED"/>
<path d="M297.1 259.8L307.6 266.1L309.2 270.5L297.1 259.8Z" fill="#DCE1ED"/>
<path d="M297.1 259L307.7 265.2L310.7 261.2L297.1 259Z" fill="#DCE1ED"/>
<path d="M283.3 248.7L284.3 251.8L294.4 257.6L288.6 250.4L283.3 248.7Z" fill="#DCE1ED"/>
<path d="M289.7 250.7L297 250.2L295.4 257.9L289.7 250.7Z" fill="#DCE1ED"/>
<path d="M297.5 251L296 258.2L302.4 259.2L297.5 251Z" fill="#DCE1ED"/>
<path d="M297.8 250.2L303.2 259.3L310.6 260.5L307.3 249.5L297.8 250.2Z" fill="#DCE1ED"/>
<path d="M297.6 249.5L307 248.8L297.5 235.9L299 241.3L297.6 249.5Z" fill="#DCE1ED"/>
<path d="M297 249.6L298.4 241.5L289.5 250.1L297 249.6Z" fill="#DCE1ED"/>
<path d="M289.3 249.3L298.1 240.8L294.5 224.4L289.3 249.3Z" fill="#DCE1ED"/>
<path d="M288.399 249.7L293.999 223.1L268.699 226.9L255.899 239.3L288.399 249.7Z" fill="#DCE1ED"/>
<path d="M237.7 221L267.7 226.7L255.2 238.9L237.7 221Z" fill="#DCE1ED"/>
<path d="M233.5 220.5L236.6 220.8L254.5 239.3L236.9 236.5L233.5 220.5Z" fill="#DCE1ED"/>
<path d="M235.799 236L232.799 222.3L229.399 233.1L235.799 236Z" fill="#DCE1ED"/>
<path d="M229.7 234.4L235.7 237.2L233.7 252.6L229.7 234.4Z" fill="#DCE1ED"/>
<path d="M236.399 240.8L234.399 255.4L236.999 245.8L236.399 240.8Z" fill="#DCE1ED"/>
<path d="M236.8 237.8L239.5 255.8L243.5 252.1L236.8 237.8Z" fill="#DCE1ED"/>
<path d="M237.2 237.2L238.8 237.5L243.1 249.8L237.2 237.2Z" fill="#DCE1ED"/>
<path d="M221.399 253.7L231.399 250.1L226.399 255.3L221.399 253.7Z" fill="#DCE1ED"/>
<path d="M221.2 252.6L231.8 248.9L228.7 235L221.2 252.6Z" fill="#DCE1ED"/>
<path d="M220.6 251.8L228.4 233L228.6 214.8L217.7 235.4L220.6 251.8Z" fill="#DCE1ED"/>
<path d="M219.7 253.1L217 237.7L216.6 250.5L219.7 253.1Z" fill="#DCE1ED"/>
<path d="M229.6 212.3L229.3 229.9L232.6 220L229.6 212.3Z" fill="#DCE1ED"/>
<path d="M230.2 211.6L233.1 219.4L237.4 205.5L230.2 211.6Z" fill="#DCE1ED"/>
<path d="M233.899 219.5L238.399 205.4L246.299 212.2L233.899 219.5Z" fill="#DCE1ED"/>
<path d="M235.2 219.8L246.5 213.1L267.5 225.7L237.5 220.2L235.2 219.8Z" fill="#DCE1ED"/>
<path d="M282.299 146.1L275.099 150.3L263.899 155.2L278.499 142.4L282.299 146.1Z" fill="#DCE1ED"/>
<path d="M279.2 142L282.8 145.3L283.5 145.4L293.8 139.5L298.6 138.3L296.1 137.6L279.2 142Z" fill="#DCE1ED"/>
<path d="M297.399 137.3L299.299 138L304.999 136.7L297.399 137.3Z" fill="#DCE1ED"/>
<path d="M246.2 184.3L238.6 204.4L246.2 211.1L250.8 189L246.2 184.3Z" fill="#DCE1ED"/>
<path d="M251.399 191.3L246.899 211.7L267.699 203.6L251.399 191.3Z" fill="#DCE1ED"/>
<path d="M252.3 191.1L269.2 203.7L288.1 209L271.8 196.9L252.3 191.1Z" fill="#DCE1ED"/>
<path d="M268.399 204.2L247.399 212.5L268.099 224.8L268.399 204.2Z" fill="#DCE1ED"/>
<path d="M269.2 205.4V224.7L276 217.1L269.2 205.4Z" fill="#DCE1ED"/>
<path d="M270 204.9L276.8 216.5L288 209.8L270 204.9Z" fill="#DCE1ED"/>
<path d="M289.2 210.1L277.3 217.4L294 222.1L295.4 212.8L289.2 210.1Z" fill="#DCE1ED"/>
<path d="M276.4 218.1L292.2 222.5L269.5 225.8L276.4 218.1Z" fill="#DCE1ED"/>
<path d="M229.1 165L251.3 182.4L250.9 187.9L229.1 165Z" fill="#DCE1ED"/>
<path d="M228.2 165.1L245.7 183.7L227.3 182.9L228.2 165.1Z" fill="#DCE1ED"/>
<path d="M251.3 181.3L175.1 121.4L182.1 113.5L241.1 171.1L251.3 181.3Z" fill="#DCE1ED"/>
<path d="M200.3 142.5L227.3 163.3L212.6 165.4L200.3 142.5Z" fill="#DCE1ED"/>
<path d="M196.2 167.8L211.5 165.6L198.7 141.5L196.2 167.8Z" fill="#DCE1ED"/>
<path d="M196.6 168.8L211.7 166.4L218 178.9L215.1 183.6L196.6 168.8Z" fill="#DCE1ED"/>
<path d="M212.7 166.5L218.4 178.1L222.8 171.1L212.7 166.5Z" fill="#DCE1ED"/>
<path d="M213.6 166.1L226.9 164.2L223.1 170.3L213.6 166.1Z" fill="#DCE1ED"/>
<path d="M227.3 165.1L215.6 184.3L220.6 188.2L226.6 183.1L227.3 165.1Z" fill="#DCE1ED"/>
<path d="M196.1 169.6L220.1 188.8L219.7 228.7L194.5 186.1L196.1 169.6Z" fill="#DCE1ED"/>
<path d="M185.2 148.7L196.7 152L195.3 166.7L185.2 148.7Z" fill="#DCE1ED"/>
<path d="M184.399 147.3L197.299 146.6L196.799 151L184.399 147.3Z" fill="#DCE1ED"/>
<path d="M184.5 146L197.3 145.4L197.9 140.5L193.6 137.5L184.5 146Z" fill="#DCE1ED"/>
<path d="M188.3 133.1L192.7 136.8L183.3 145L177.3 135.2L188.3 133.1Z" fill="#DCE1ED"/>
<path d="M176.6 133.9L186.7 132.3L164.8 115.3L176.6 133.9Z" fill="#DCE1ED"/>
<path d="M167.899 107.4L177.599 116.5L174.999 119.6L167.899 107.4Z" fill="#DCE1ED"/>
<path d="M178.4 115.5L181.2 112.7L152.2 90.9004L178.4 115.5Z" fill="#DCE1ED"/>
<path d="M173.8 120.4L163.8 103L150.8 92.2002L162.1 111.4L173.8 120.4Z" fill="#DCE1ED"/>
<path d="M151 96.4996L141.6 81.5996L138.7 83.7996L151 96.4996Z" fill="#DCE1ED"/>
<path d="M150.7 98.3998L139.7 88.7998L138 91.3998L150.7 98.3998Z" fill="#DCE1ED"/>
<path d="M141.5 95.5996L153.3 101.6L150.9 104.7L141.5 95.5996Z" fill="#DCE1ED"/>
<path d="M155.7 104L152.7 108.7L160.2 110.9L155.7 104Z" fill="#DCE1ED"/>
<path d="M153.3 113.6L160.9 112.2L164.7 118L153.3 113.6Z" fill="#DCE1ED"/>
<path d="M142.6 109.1L157.3 110.9L150.7 113.1L142.6 109.1Z" fill="#DCE1ED"/>
<path d="M137.5 99L136.5 102.2L140.4 106.8L149.7 107.3L150.3 105.8L137.5 99Z" fill="#DCE1ED"/>
<path d="M141.4 99.3L128.1 92.7L129.4 91L141.4 99.3Z" fill="#DCE1ED"/>
<path d="M138 94.7998L125.8 85.9998L128 83.2998L138 94.7998Z" fill="#DCE1ED"/>
<path d="M127.5 81.2L129.6 78.4L112.5 71L127.5 81.2Z" fill="#DCE1ED"/>
<path d="M123.9 91.4998L108.6 81.2998L107 84.3998L123.9 91.4998Z" fill="#DCE1ED"/>
<path d="M121.7 95.4004L132.1 98.1004L131 100.7L120.8 99.2004L121.7 95.4004Z" fill="#DCE1ED"/>
<path d="M126.7 102.1L134.1 102L135.5 105.4L126.7 102.1Z" fill="#DCE1ED"/>
<path d="M125.7 107.2L122.3 102.8L115.8 104.6L125.7 107.2Z" fill="#DCE1ED"/>
<path d="M132.7 106.3L132.3 111.5L147 112.6L132.7 106.3Z" fill="#DCE1ED"/>
<path d="M138.2 116.1L144.4 114.1L131.8 113.5L138.2 116.1Z" fill="#DCE1ED"/>
<path d="M142.7 116.4L150.1 114.3L163.9 119L158.5 121.4L142.7 116.4Z" fill="#DCE1ED"/>
<path d="M140.799 117.9L157.199 121.8L145.799 125.1L137.399 120.3L140.799 117.9Z" fill="#DCE1ED"/>
<path d="M119.6 115L139.4 125.3L126.5 128.3L119.6 115Z" fill="#DCE1ED"/>
<path d="M160.399 122.3L165.699 119.6L169.499 125.1L160.399 122.3Z" fill="#DCE1ED"/>
<path d="M158.6 123L168.3 126.4L147.2 126.2L158.6 123Z" fill="#DCE1ED"/>
<path d="M151.899 127.6L166.399 128L161.599 130.3L151.899 127.6Z" fill="#DCE1ED"/>
<path d="M143.599 126.9L127.899 132.2L154.299 133.4L159.299 131L143.599 126.9Z" fill="#DCE1ED"/>
<path d="M158.2 133.5L173.9 132.8L170.7 127.5L158.2 133.5Z" fill="#DCE1ED"/>
<path d="M161.9 135L171.8 134.3L156.8 144.1L161.9 135Z" fill="#DCE1ED"/>
<path d="M159.6 143.7L174.8 134.3L179 141.2L159.6 143.7Z" fill="#DCE1ED"/>
<path d="M159.3 136.3L154.8 144.6L142.5 145.6L159.3 136.3Z" fill="#DCE1ED"/>
<path d="M140.899 144.5L157.999 135.1L141.199 134.6L140.899 144.5Z" fill="#DCE1ED"/>
<path d="M123.899 136.3L139.399 134.6L139.199 140.8L123.899 136.3Z" fill="#DCE1ED"/>
<path d="M141.8 149.9L151.1 153.3L159.6 147.3L165.9 144.5L159.6 144.9L141.8 149.9Z" fill="#DCE1ED"/>
<path d="M142.3 161L160.9 148.6H170.3L142.3 161Z" fill="#DCE1ED"/>
<path d="M154.899 156.8L173.199 148.5L171.199 151.7L156.499 158.7L154.899 156.8Z" fill="#DCE1ED"/>
<path d="M156.899 159.9L170.499 153.3L167.699 158.5L156.399 164.6L156.899 159.9Z" fill="#DCE1ED"/>
<path d="M152.8 167.8L166.7 160L169.4 161.7L160.6 168.7L152.8 167.8Z" fill="#DCE1ED"/>
<path d="M169.2 158.3L174.5 148.7L182.2 148.4L169.2 158.3Z" fill="#DCE1ED"/>
<path d="M162.3 147.5L183 147.4L179.8 142.1L162.3 147.5Z" fill="#DCE1ED"/>
<path d="M169.8 161.5L186.3 153L183.8 148.5L169.8 161.5Z" fill="#DCE1ED"/>
<path d="M173.8 160.5L186.9 153.9L189.1 158L173.8 160.5Z" fill="#DCE1ED"/>
<path d="M180.599 160.3L187.999 159.2L175.899 168.5L180.599 160.3Z" fill="#DCE1ED"/>
<path d="M177 169.1L189.7 159L193 165L177 169.1Z" fill="#DCE1ED"/>
<path d="M175 171L184.4 168.4L176.4 175.6L175 171Z" fill="#DCE1ED"/>
<path d="M174 169.4L178.7 161.4L172 166.4L174 169.4Z" fill="#DCE1ED"/>
<path d="M186.6 168L180.6 173.3L190 167.1L186.6 168Z" fill="#DCE1ED"/>
<path d="M193.5 166.1L195.3 169L190.1 174.9L177.8 176.3L193.5 166.1Z" fill="#DCE1ED"/>
<path d="M195.1 170.3L194.5 175.9L185.6 182.1L195.1 170.3Z" fill="#DCE1ED"/>
<path d="M194.4 177L185.1 183.5L193.6 184.3L194.4 177Z" fill="#DCE1ED"/>
<path d="M170.8 161.9L177.7 160.9L170.3 166.3L160.6 174.5L155.7 174L170.8 161.9Z" fill="#DCE1ED"/>
<path d="M153.6 181.4L170.9 167.3L173.4 170.8L162.9 181.3L153.6 181.4Z" fill="#DCE1ED"/>
<path d="M164.3 181.4L174 171.8L175.4 176.7L169.2 181.9L164.3 181.4Z" fill="#DCE1ED"/>
<path d="M176.4 177.2L185.4 175.9L168.7 190.1L162.2 189.8L176.4 177.2Z" fill="#DCE1ED"/>
<path d="M168 192L186.4 175.9L189.8 175.6L176.7 190.7L168 192Z" fill="#DCE1ED"/>
<path d="M163.4 183.1L167.3 183.4L161.8 188.2L163.4 183.1Z" fill="#DCE1ED"/>
<path d="M161.8 184.3L159.9 189.4L156 191.1L157.9 188.4L161.8 184.3Z" fill="#DCE1ED"/>
<path d="M183.8 184.2L188.5 184.7L180.7 193.9L177.7 190.9L183.8 184.2Z" fill="#DCE1ED"/>
<path d="M189.5 184.9L181.5 194.5L185.1 196.8L193.5 185.2L189.5 184.9Z" fill="#DCE1ED"/>
<path d="M220.899 189.5V226.8L229.099 211.4L220.899 189.5Z" fill="#DCE1ED"/>
<path d="M196.2 190.9L202.2 201.6L201.2 235.2L198.7 239.7L196.2 190.9Z" fill="#DCE1ED"/>
<path d="M203.299 203.1L216.299 225.3L215.699 244.4L205.999 259.7L202.399 235.3L203.299 203.1Z" fill="#DCE1ED"/>
<path d="M181.1 195.3L184.7 197.7L177.6 216L181.1 195.3Z" fill="#DCE1ED"/>
<path d="M194.1 187L195.3 189.1L195.6 198.7H192L194.1 187Z" fill="#DCE1ED"/>
<path d="M191.9 199.7L195.2 199.6L191.8 202.3L191.9 199.7Z" fill="#DCE1ED"/>
<path d="M191.799 203.5L195.599 200.4L196.199 218.1L191.399 220.9L191.799 203.5Z" fill="#DCE1ED"/>
<path d="M191.3 222.3L196.3 219.3L197.5 241.2L191 245.7L191.3 222.3Z" fill="#DCE1ED"/>
<path d="M186.2 197.2L193.2 187.1L191.1 198.4L186.2 197.2Z" fill="#DCE1ED"/>
<path d="M185.5 198.2L179 215.5V223.3L186.8 234.7L190.3 221.9L191 199.5L185.5 198.2Z" fill="#DCE1ED"/>
<path d="M176.999 191.7L179.999 194.7L176.399 214.6L172.399 213.4L172.899 201.8L176.999 191.7Z" fill="#DCE1ED"/>
<path d="M175.5 193.1L171.6 201.7L171.2 213L168 211.9V201.1L175.5 193.1Z" fill="#DCE1ED"/>
<path d="M166.399 202.5L166.299 211.9L160.399 207.2L166.399 202.5Z" fill="#DCE1ED"/>
<path d="M161.8 190.9L160.6 204.9L167 200.2L175 192.1L165.7 193.3L167.1 191.2L161.8 190.9Z" fill="#DCE1ED"/>
<path d="M273.899 144.8L278.199 141.1L286.599 139.2L278.899 134.9L272.899 138.7L273.899 144.8Z" fill="#DCE1ED"/>
<path d="M273.2 145.6L272.3 139L262.5 142L269.6 148.7L273.2 145.6Z" fill="#DCE1ED"/>
<path d="M283.6 136.6L287.6 138.8L294.1 137.2L283.1 130.1L283.6 136.6Z" fill="#DCE1ED"/>
<path d="M291.3 130.4L302.4 120.5L295.8 136.8L294.5 137L291.3 130.4Z" fill="#DCE1ED"/>
<path d="M291.199 129.7L300.899 121L289.899 112.8L292.399 117.6L291.199 129.7Z" fill="#DCE1ED"/>
<path d="M284.1 116.2L291.7 118.1L290.7 128.4L284.1 116.2Z" fill="#DCE1ED"/>
<path d="M283.8 115.2L291.7 117.5L288 110.6L283.8 115.2Z" fill="#DCE1ED"/>
<path d="M283 115.8L280.2 118.8L290.5 129.1L283 115.8Z" fill="#DCE1ED"/>
<path d="M284.1 124L290 129.5L277.1 127.8L284.1 124Z" fill="#DCE1ED"/>
<path d="M277.1 128.6L282.9 129.3L279.1 133.9L277.1 128.6Z" fill="#DCE1ED"/>
<path d="M276.4 128.8L278.5 134.3L260.3 131.7L276.4 128.8Z" fill="#DCE1ED"/>
<path d="M272.499 134.1L277.899 134.8L272.499 138.2L254.399 136.6L272.499 134.1Z" fill="#DCE1ED"/>
<path d="M269.4 133.8L254.7 135.8L256.5 131.9L269.4 133.8Z" fill="#DCE1ED"/>
<path d="M253.5 137.3L271.4 138.7L246.2 146.3L253.5 137.3Z" fill="#DCE1ED"/>
<path d="M259 147.8L268.3 150L262 155.3L261.9 150.6L259 147.8Z" fill="#DCE1ED"/>
<path d="M232.799 161.7L242.499 156.5L230.399 159.5L232.799 161.7Z" fill="#DCE1ED"/>
<path d="M279.899 118L287.399 110.1L279.899 111.5V118Z" fill="#DCE1ED"/>
<path d="M276.2 122.2L276.9 127.1L282.9 123.9L276.2 122.2Z" fill="#DCE1ED"/>
<path d="M276 121.2L279.3 118.7L279.2 112.1L275.2 116.3L276 121.2Z" fill="#DCE1ED"/>
<path d="M191.6 70.2002L198.4 71.1002L203.4 79.7002L191.6 70.2002Z" fill="#DCE1ED"/>
<path d="M159.399 48.2004L156.199 43.4004L151.399 45.3004L159.399 48.2004Z" fill="#DCE1ED"/>
<path d="M192.4 50.7998L191.5 55.0998L198.7 62.2998L192.4 50.7998Z" fill="#DCE1ED"/>
<path d="M145.5 75.4004L149.1 80.8004L157.8 82.8004L145.5 75.4004Z" fill="#DCE1ED"/>
<path d="M192.999 94.7004L177.899 87.9004L189.699 96.2004L192.999 94.7004Z" fill="#DCE1ED"/>
<path d="M180.9 78.3L173.8 72L170.2 76.6L180.9 78.3Z" fill="#DCE1ED"/>
<path d="M259 124.8L265.6 125L273.5 116.6L259 124.8Z" fill="#DCE1ED"/>
<path d="M258.4 125.8L265 125.9L257.8 130.7L258.4 125.8Z" fill="#DCE1ED"/>
<path d="M202.8 108.3C202.8 108.3 214 110.1 213.7 109.8C213.4 109.6 205.7 104.3 205.7 104.3L202.8 108.3Z" fill="#DCE1ED"/>
<path d="M228.5 96.7998L222.8 98.6998L234.2 102.3L228.5 96.7998Z" fill="#DCE1ED"/>
<path d="M274.6 116.7L276.4 128.1L258.7 131.3L265.7 126.5L274.6 116.7Z" fill="#DCE1ED"/>
<path d="M276.7 121.6L279.7 119.4L283.5 123.4L276.7 121.6Z" fill="#DCE1ED"/>
<path d="M242.7 105.8L252.8 106.4L231.7 94.7002L242.7 105.8Z" fill="#DCE1ED"/>
<path d="M256.399 117.2L228.199 103.9L213.399 104.8L226.099 112.5L256.399 117.2Z" fill="#DCE1ED"/>
<path d="M218.899 142.3L255.899 131.6L253.599 136L218.899 142.3Z" fill="#DCE1ED"/>
<path d="M192.7 109.5L196.3 108.6L190.8 105.8L192.7 109.5Z" fill="#DCE1ED"/>
<path d="M242 148.3L260.6 142.8L258.3 146.9L246.3 149.7L242 148.3Z" fill="#DCE1ED"/>
<path d="M261.7 142.4L259.2 147.1L268.8 149.2L261.7 142.4Z" fill="#DCE1ED"/>
<path d="M227.1 156.4L245.2 150.2L241 148.9L227.1 156.4Z" fill="#DCE1ED"/>
<path d="M225.2 153.7L244.8 146.6L252.4 137.3L225.2 153.7Z" fill="#DCE1ED"/>
<path d="M223.499 152.8L220.399 149.7L242.599 141.6L223.499 152.8Z" fill="#DCE1ED"/>
<path d="M219.4 148.4L248.8 138L215.1 144.4L219.4 148.4Z" fill="#DCE1ED"/>
<path d="M213.1 142.3L240 134.8L208.7 138L213.1 142.3Z" fill="#DCE1ED"/>
<path d="M207 136L236.6 133.4L227.3 129.4L204.2 133.4L207 136Z" fill="#DCE1ED"/>
<path d="M223.5 128.6L212.4 125.4L211.3 126.8L214.9 129.7L223.5 128.6Z" fill="#DCE1ED"/>
<path d="M221.7 76.9004C221.7 77.1004 230.1 90.2004 230.1 90.2004L257.4 99.6004L221.7 76.9004Z" fill="#DCE1ED"/>
<path d="M218.5 55.5L230.1 61.1L246 79.8L221.6 64.5L218.5 55.5Z" fill="#DCE1ED"/>
<path d="M200.5 84.9004L222.5 95.7004L205.4 93.7004L200.5 84.9004Z" fill="#DCE1ED"/>
<path d="M215.199 79.6004L209.299 68.9004L208.899 75.6004L215.199 79.6004Z" fill="#DCE1ED"/>
<path d="M253.2 84.4004L249.2 86.8004L262.6 94.2004L253.2 84.4004Z" fill="#DCE1ED"/>
<path d="M130.399 48.9004L140.799 51.3004L145.499 58.4004L130.399 48.9004Z" fill="#DCE1ED"/>
<path d="M139.8 151.6L148 154.5L129.4 164.3L126.7 161.6L139.8 151.6Z" fill="#DCE1ED"/>
<path d="M131.2 154.2L127.8 150.8L144.8 146.8L131.2 154.2Z" fill="#DCE1ED"/>
<path d="M126.099 151.7L129.399 155.4L106.899 164.8L126.099 151.7Z" fill="#DCE1ED"/>
<path d="M92.3994 154.1L128.599 145.5L109.199 156L92.3994 154.1Z" fill="#DCE1ED"/>
<path d="M84.5996 151.8L103.7 146.6L89.3996 148.3L84.5996 151.8Z" fill="#DCE1ED"/>
<path d="M80.5 144.8L93.1 141.1L99.5 134.8L80.5 144.8Z" fill="#DCE1ED"/>
<path d="M103.6 142.4L120.8 139.9L115.8 134.2L103.6 142.4Z" fill="#DCE1ED"/>
<path d="M53.5 113L85.8 113.5L100 117.1L64.6 118.9L53.5 113Z" fill="#DCE1ED"/>
<path d="M73 107.2L113.7 107.3L113.9 111.3L73 107.2Z" fill="#DCE1ED"/>
<path d="M46 91.0996L69.1 105.5L61.2 106.1L46 91.0996Z" fill="#DCE1ED"/>
<path d="M71.2002 92.4004L110.6 97.0004L109 102.1L71.2002 92.4004Z" fill="#DCE1ED"/>
<path d="M67.2002 76.7002L98.4002 84.6002L95.2002 88.8002L67.2002 76.7002Z" fill="#DCE1ED"/>
<path d="M58.4994 80.8L64.2994 78.4L48.3994 72.5L58.4994 80.8Z" fill="#DCE1ED"/>
<path d="M52.9998 83.6998L29.7998 67.2998L40.2998 78.6998L52.9998 83.6998Z" fill="#DCE1ED"/>
<path d="M46.8998 65.9002L49.4998 62.4002L27.2998 47.7002L46.8998 65.9002Z" fill="#DCE1ED"/>
<path d="M67.1002 66.9002L71.7002 68.4002L62.7002 59.2002L67.1002 66.9002Z" fill="#DCE1ED"/>
<path d="M72.1 59.3996L17.8 35.2996L15 29.0996L72.1 59.3996Z" fill="#DCE1ED"/>
<path d="M88.0996 62.5996L97.9996 73.8996L110.6 74.4996L88.0996 62.5996Z" fill="#DCE1ED"/>
<path d="M92.8998 49.4004L121.8 70.6004L90.2998 55.6004L92.8998 49.4004Z" fill="#DCE1ED"/>
<path d="M131.3 169.1L136.2 171.2L151.5 161.3L149.9 159.3L131.3 169.1Z" fill="#DCE1ED"/>
<path d="M124.9 171.9L128 174.2L121.2 182L113.8 183.1L124.9 171.9Z" fill="#DCE1ED"/>
<path d="M117.5 174.5L107.7 184.1L108 178.4L117.5 174.5Z" fill="#DCE1ED"/>
<path d="M126.8 166.5L124 163.5L116.2 172.4L126.8 166.5Z" fill="#DCE1ED"/>
<path d="M132.1 173.1L137.4 173.7L126.6 179.6L132.1 173.1Z" fill="#DCE1ED"/>
<path d="M154.7 160.9L154.3 165.2L145.6 168.4L154.7 160.9Z" fill="#DCE1ED"/>
<path d="M141.8 171.7L148.1 170L134.7 190.7L129.5 190.9L141.8 171.7Z" fill="#DCE1ED"/>
<path d="M135 178.1L126 192.3L122 184.9L135 178.1Z" fill="#DCE1ED"/>
<path d="M151.1 169.6L157 170.4L137 189.4L151.1 169.6Z" fill="#DCE1ED"/>
<path d="M152.199 183.1L161.199 183L147.399 196.9L147.499 187.4L152.199 183.1Z" fill="#DCE1ED"/>
<path d="M145.899 188.7L144.799 199.6L138.399 194.3L145.899 188.7Z" fill="#DCE1ED"/>
<path d="M147.5 199.7L160.4 190.5L160 194.2L149.2 204.3L147.5 199.7Z" fill="#DCE1ED"/>
<path d="M159.8 196.7L150 206L158.8 206.6L159.8 196.7Z" fill="#DCE1ED"/>
<path d="M159.399 208.7L165.099 213.1L159.799 214.4L159.399 208.7Z" fill="#DCE1ED"/>
<path d="M167.299 213.5L165.399 217.7L175.899 216.4L167.299 213.5Z" fill="#DCE1ED"/>
<path d="M190.099 227.4L187.399 236.7L188.199 241L189.599 244.2L190.099 227.4Z" fill="#DCE1ED"/>
<path d="M217.4 226.8L219.1 229.8L217.2 234.6L217.4 226.8Z" fill="#DCE1ED"/>
<path d="M201.3 238.2L191.7 256.2L204.5 272.1L204.7 261.1L201.3 238.2Z" fill="#DCE1ED"/>
<path d="M196.699 243.7L190.999 247.6L190.899 254.7L196.699 243.7Z" fill="#DCE1ED"/>
<path d="M232.399 250.6L226.599 256.8L220.899 254.7L223.899 274.7L233.499 255.6L232.399 250.6Z" fill="#DCE1ED"/>
<path d="M215.599 247L215.499 251.3L219.499 254.6L219.899 257.4L212.299 276L206.399 261.3L215.599 247Z" fill="#DCE1ED"/>
<path d="M299.299 190.3L303.999 196.5L303.799 206.5L299.899 215.7L296.099 212L289.899 209.2L290.299 201.4L299.299 190.3Z" fill="#DCE1ED"/>
<path d="M296.2 213.5L299.6 216.7L295.8 226.5L295 222.7L296.2 213.5Z" fill="#DCE1ED"/>
<path d="M311 261.9L308.2 265.6L309.9 270.3L311 261.9Z" fill="#DCE1ED"/>
<path d="M311.6 261.9L310.5 271L322.9 277.6L311.6 261.9Z" fill="#DCE1ED"/>
<path d="M319.2 257.8L317.7 259.3L321.1 267.4L323.6 264.8L319.2 257.8Z" fill="#DCE1ED"/>
<path d="M317.3 259.8L320.5 267.7L316 264.7L317.3 259.8Z" fill="#DCE1ED"/>
<path d="M315.799 265.2L315.399 266.2L323.899 277.9L320.599 268.3L315.799 265.2Z" fill="#DCE1ED"/>
<path d="M321.2 268.4L327.9 269.3L324.4 277.5L321.2 268.4Z" fill="#DCE1ED"/>
<path d="M321.399 267.8L327.899 268.8L323.899 265.2L321.399 267.8Z" fill="#DCE1ED"/>
<path d="M324.3 264.9L328.6 268.7L333.7 264.2L324.3 264.9Z" fill="#DCE1ED"/>
<path d="M322.2 261.9L324 264.5L328.2 264.1L322.2 261.9Z" fill="#DCE1ED"/>
<path d="M333.6 251.6L328.6 263.8L322.5 261.5L333.6 251.6Z" fill="#DCE1ED"/>
<path d="M329.1 264L333.8 263.8L334.6 259.8L331.5 258L329.1 264Z" fill="#DCE1ED"/>
<path d="M331.899 257.7L334.299 259.1L341.599 253.2L331.899 257.7Z" fill="#DCE1ED"/>
<path d="M332.1 256.7L334.3 251.2L344.5 245.3L332.1 256.7Z" fill="#DCE1ED"/>
<path d="M332.7 256.7L345 245.5L341.5 252.8L332.7 256.7Z" fill="#DCE1ED"/>
<path d="M342.1 252.6L345.7 245.2L347.1 244.7L351.5 248.7L342.1 252.6Z" fill="#DCE1ED"/>
<path d="M347.6 244.6L350.1 246.8L352 244L347.6 244.6Z" fill="#DCE1ED"/>
<path d="M352.3 244.3L350.5 247.1L352.7 249.1L355.3 248.6L352.3 244.3Z" fill="#DCE1ED"/>
<path d="M328.4 269.5L324.6 278.3L329.9 280.4L328.4 269.5Z" fill="#DCE1ED"/>
<path d="M324.6 279L330 281.1L327.6 285.8L324.6 279Z" fill="#DCE1ED"/>
<path d="M330.4 281.2L328.3 285.5L332.2 281.8L330.4 281.2Z" fill="#DCE1ED"/>
<path d="M330.4 284.3L328 286.3L328.6 287.3L333.5 289.2L330.4 284.3Z" fill="#DCE1ED"/>
<path d="M332.5 287.8L333.7 288.9L336.5 286.9L332.5 287.8Z" fill="#DCE1ED"/>
<path d="M320.6 159.3L332.3 160.6L329 151.8L320.6 159.3Z" fill="#DCE1ED"/>
<path d="M332.7 169.9L332.2 174.9L326.1 172.5L332.7 169.9Z" fill="#DCE1ED"/>
<path d="M325.6 173L331.9 175.6L325.8 184.1L325.6 173Z" fill="#DCE1ED"/>
<path d="M325.9 171.9L316.1 164.1L320.1 160L332 169.5L325.9 171.9Z" fill="#DCE1ED"/>
<path d="M321.6 160.2L332.3 161.3L332.8 169.2L321.6 160.2Z" fill="#DCE1ED"/>
<path d="M325.2 181.3L325.3 184.3L322.2 185.7L325.2 181.3Z" fill="#DCE1ED"/>
<path d="M315.2 165.1L324.4 172.2L309.3 170.6L315.2 165.1Z" fill="#DCE1ED"/>
<path d="M317.7 177.8L324.4 173L314.2 171.8L317.7 177.8Z" fill="#DCE1ED"/>
<path d="M317 177.8L313.5 171.8L308.8 171.2L304.7 174.9L310 177.6L317 177.8Z" fill="#DCE1ED"/>
<path d="M295.2 161.2L302.5 173.9L294 167.4L295.2 161.2Z" fill="#DCE1ED"/>
<path d="M310.899 150.5L315.199 158.1L319.199 158.8L318.599 155.5L310.899 150.5Z" fill="#DCE1ED"/>
<path d="M300.9 149.5L300 143.5L304.1 145.6L300.9 149.5Z" fill="#DCE1ED"/>
<path d="M301.8 149.6L304.7 150.3L306.1 144.2L301.8 149.6Z" fill="#DCE1ED"/>
<path d="M306.599 153.5L305.399 151L306.099 147.7L308.799 148.8L306.599 153.5Z" fill="#DCE1ED"/>
<path d="M307.2 153.9L309.3 149.7L311 152.5L307.2 153.9Z" fill="#DCE1ED"/>
<path d="M299.4 144.2L300.7 152.8L296.8 147.6L299.4 144.2Z" fill="#DCE1ED"/>
<path d="M299.299 152.4L296.099 148.1L291.899 148.3L299.299 152.4Z" fill="#DCE1ED"/>
<path d="M306.199 142.8L304.499 144.9L296.899 141L306.199 142.8Z" fill="#DCE1ED"/>
<path d="M307.3 142.9L306.7 144.9L322.2 140.3L307.3 142.9Z" fill="#DCE1ED"/>
<path d="M314.499 136.8L307.899 142.1L321.099 139.8L314.499 136.8Z" fill="#DCE1ED"/>
<path d="M313.8 136.6L306.7 142.2L295.1 139.9L306.9 136.6H313.8Z" fill="#DCE1ED"/>
<path d="M296.9 141.8L299.5 143.2L296.6 146.8L296.9 141.8Z" fill="#DCE1ED"/>
<path d="M295.7 151.5L293 155.6L287.8 156.9L288.8 152.6L295.7 151.5Z" fill="#DCE1ED"/>
<path d="M294.8 150.9L290.2 148.4L281 149.3L288.4 151.7L294.8 150.9Z" fill="#DCE1ED"/>
<path d="M292.799 156.5L287.499 167.9L280.399 160.1L292.799 156.5Z" fill="#DCE1ED"/>
<path d="M287.9 152.4L286.8 156.7L266.2 155.1L278.2 149.8H279.7L287.9 152.4Z" fill="#DCE1ED"/>
<path d="M297.1 181.4L296 185.6L298.8 189.6L289.2 201L288.8 208.4L279.7 201.5L283.3 191.3L297.1 181.4Z" fill="#DCE1ED"/>
<path d="M287.5 169.8L296.3 180.8L282.6 190.5L272.2 196.1L253.5 190.4L267.9 187.2L287.5 169.8Z" fill="#DCE1ED"/>
<path d="M273.5 196.7L278.7 200.7L282 192L273.5 196.7Z" fill="#DCE1ED"/>
<path d="M287 168.8L279.4 160.6L243.3 171.8L287 168.8Z" fill="#DCE1ED"/>
<path d="M252.2 181.9L251.6 189.9L267 186.4L252.2 181.9Z" fill="#DCE1ED"/>
<path d="M243.5 170.6L285.8 157.5L265.4 155.9L243.5 170.6Z" fill="#DCE1ED"/>
<path d="M262.7 156.5L242 170.3L234.6 163.2L262.7 156.5Z" fill="#DCE1ED"/>
<path d="M234.399 162.2L260.999 155.6L260.899 151.1L258.299 148.4L234.399 162.2Z" fill="#DCE1ED"/>
<path d="M244.1 172.8L285.9 169.9L267.9 185.6L252.1 180.8L244.1 172.8Z" fill="#DCE1ED"/>
<path d="M257.4 148L243.1 155.4L229.5 158.7L227.8 157L246.9 150.4L257.4 148Z" fill="#DCE1ED"/>
<path d="M293.5 136.2L290.5 130.3L283.2 129.3L293.5 136.2Z" fill="#DCE1ED"/>
<path d="M282.5 130.8L282.8 136.1L279.7 134.4L282.5 130.8Z" fill="#DCE1ED"/>
<path d="M221.5 188.7L224.8 197.5L245.2 184.5L227.4 183.7L221.5 188.7Z" fill="#DCE1ED"/>
<path d="M244.5 186.1L225.2 198.5L229.8 210.6L237.6 204.2L244.5 186.1Z" fill="#DCE1ED"/>
<path d="M257.3 125.4L256.7 130.5L240.5 122.4L257.3 125.4Z" fill="#DCE1ED"/>
<path d="M257.7 124.4L241.2 121.3L271.1 116.9L257.7 124.4Z" fill="#DCE1ED"/>
<path d="M253.6 129.8L235.4 121.4L212.8 121L253.6 129.8Z" fill="#DCE1ED"/>
<path d="M252.8 131.4L218.6 124.3L240 133.8L252.8 131.4Z" fill="#DCE1ED"/>
<path d="M286.7 109.6L279.5 110.8L270.1 99.7002L286.7 109.6Z" fill="#DCE1ED"/>
<path d="M278.8 111.3L270 100.4L274.2 115.7L278.8 111.3Z" fill="#DCE1ED"/>
<path d="M272.899 114.8L265.699 104.2L247.399 99.2998L272.899 114.8Z" fill="#DCE1ED"/>
<path d="M271.9 115.9L260.8 109.7L243.6 109.1L260.3 117.2L271.9 115.9Z" fill="#DCE1ED"/>
<path d="M210.4 129.8L195.7 123.7L203.1 130.6L210.4 129.8Z" fill="#DCE1ED"/>
<path d="M236.3 117.7L216.9 118.1L199.8 112.6L218.3 113.2L236.3 117.7Z" fill="#DCE1ED"/>
<path d="M210.3 119L195 113.9H187L193.9 117.7L210.3 119Z" fill="#DCE1ED"/>
<path d="M5.2002 80.2998L31.6002 87.1998L24.3002 90.0998L5.2002 80.2998Z" fill="#DCE1ED"/>
<path d="M11.9994 54.8996L17.5994 52.1996L1.39941 47.0996L11.9994 54.8996Z" fill="#DCE1ED"/>
<path d="M44.5996 13.9004L51.8996 27.0004L64.0996 30.2004L44.5996 13.9004Z" fill="#DCE1ED"/>
<path d="M5.59981 0L0.799805 0.3L12.4998 5.5L5.59981 0Z" fill="#DCE1ED"/>
<path d="M95.8996 127.7L74.2996 126.4L40.5996 132.8L76.6996 132.5L95.8996 127.7Z" fill="#DCE1ED"/>
<path d="M107.8 676.1L120.8 659.5L126.9 639.8L116.6 659.7L107.8 676.1Z" fill="#DCE1ED"/>
<path d="M139.6 631.3L152.8 608.4L146.3 624.6L139.6 631.3Z" fill="#DCE1ED"/>
<path d="M101.5 629.3L102 629.9L84.2998 649.8L90.8998 639L101.5 629.3Z" fill="#DCE1ED"/>
<path d="M178.2 607.1L171.1 615.3L189.7 569.8L178.2 607.1Z" fill="#DCE1ED"/>
<path d="M236.8 526.6L233.7 547.8L224.2 565.4L231.9 543L236.8 526.6Z" fill="#DCE1ED"/>
<path d="M229.8 569.5L206.5 610.1L216.9 598.8L229.8 569.5Z" fill="#DCE1ED"/>
<path d="M226 604.8L214.4 625.7L206.5 651.3L218.2 626.3L226 604.8Z" fill="#DCE1ED"/>
<path d="M240.8 559.8L236.4 591.6L235.8 577.6L240.8 559.8Z" fill="#DCE1ED"/>
<path d="M190.1 644.2L204.1 621.9L192.8 635.2L190.1 644.2Z" fill="#DCE1ED"/>
<path d="M304.1 377.5L309.5 388.1L309.6 385.4L304.1 377.5Z" fill="#DCE1ED"/>
<path d="M270.899 458.3L271.199 484.2L273.199 472.8L270.899 458.3Z" fill="#DCE1ED"/>
<path d="M306.399 146.8L306.599 145.8L312.899 144L309.099 147.9L306.399 146.8Z" fill="#DCE1ED"/>
<path d="M310 148.2L314.3 143.6L322.4 141.1L315.2 149.3L310 148.2Z" fill="#DCE1ED"/>
<path d="M316.5 149.1L326.7 145.8L323.2 141.7L316.5 149.1Z" fill="#DCE1ED"/>
<path d="M315 265.5L317.1 258.9L318.5 257.7L310.3 256.9L311.3 260.5L315 265.5Z" fill="#DCE1ED"/>
<path d="M288.6 353.2L305.8 387.7L289.3 364.8L288.6 353.2Z" fill="#DCE1ED"/>
<path d="M304.2 154.2L303.5 153.9L303.3 152.7L304.4 153.1L304.7 153.9L304.2 154.2Z" fill="#DCE1ED"/>
</svg>
