<?xml version="1.0" encoding="UTF-8" standalone="no"?>
<!-- Created with Inkscape (http://www.inkscape.org/) -->

<svg
   version="1.1"
   id="svg2"
   width="27.798401"
   height="27.7812"
   viewBox="0 0 27.798401 27.7812"
   sodipodi:docname="phone.ai"
   xmlns:inkscape="http://www.inkscape.org/namespaces/inkscape"
   xmlns:sodipodi="http://sodipodi.sourceforge.net/DTD/sodipodi-0.dtd"
   xmlns="http://www.w3.org/2000/svg"
   xmlns:svg="http://www.w3.org/2000/svg">
  <defs
     id="defs6">
    <clipPath
       clipPathUnits="userSpaceOnUse"
       id="clipPath16">
      <path
         d="M 0,20.836 H 20.849 V 0 H 0 Z"
         id="path14" />
    </clipPath>
  </defs>
  <sodipodi:namedview
     id="namedview4"
     pagecolor="#ffffff"
     bordercolor="#000000"
     borderopacity="0.25"
     inkscape:showpageshadow="2"
     inkscape:pageopacity="0.0"
     inkscape:pagecheckerboard="0"
     inkscape:deskcolor="#d1d1d1" />
  <g
     id="g8"
     inkscape:groupmode="layer"
     inkscape:label="phone"
     transform="matrix(1.3333333,0,0,-1.3333333,0,27.7812)">
    <g
       id="g10">
      <g
         id="g12"
         clip-path="url(#clipPath16)">
        <g
           id="g18"
           transform="translate(5.1979,11.959)">
          <path
             d="m 0,0 c -0.109,0 -0.218,0.041 -0.301,0.124 -0.166,0.166 -0.166,0.436 0,0.602 l 1.465,1.463 c 0.356,0.357 0.356,0.937 0,1.293 L -0.83,5.477 c -0.356,0.355 -0.935,0.355 -1.293,0 L -3.918,3.68 c -0.166,-0.166 -0.436,-0.166 -0.602,0 -0.166,0.166 -0.166,0.435 0,0.601 l 1.796,1.797 c 0.688,0.688 1.807,0.688 2.495,0 L 1.765,4.084 C 2.099,3.75 2.282,3.308 2.282,2.836 2.282,2.364 2.099,1.922 1.765,1.588 L 0.301,0.124 C 0.218,0.041 0.109,0 0,0"
             style="fill:#007aff;fill-opacity:1;fill-rule:nonzero;stroke:none"
             id="path20" />
        </g>
        <g
           id="g22"
           transform="translate(5.5724,5.0498)">
          <path
             d="m 0,0 c -0.109,0 -0.218,0.041 -0.301,0.124 -2.049,2.05 -3.666,4.292 -4.554,6.314 -0.943,2.148 -0.957,3.835 -0.04,4.752 0.166,0.166 0.436,0.166 0.602,0 0.166,-0.166 0.166,-0.435 0,-0.601 C -4.936,9.946 -4.857,8.559 -4.077,6.78 -3.23,4.853 -1.676,2.702 0.301,0.726 0.467,0.56 0.467,0.29 0.301,0.124 0.218,0.041 0.109,0 0,0"
             style="fill:#007aff;fill-opacity:1;fill-rule:nonzero;stroke:none"
             id="path24" />
        </g>
        <g
           id="g26"
           transform="translate(7.6876,7.25)">
          <path
             d="m 0,0 c -0.109,0 -0.218,0.041 -0.301,0.124 -1.878,1.878 -3.458,4.341 -2.49,5.311 0.166,0.166 0.436,0.166 0.602,0 0.166,-0.166 0.166,-0.436 0,-0.602 C -2.431,4.591 -1.875,2.901 0.301,0.726 0.467,0.56 0.467,0.29 0.301,0.124 0.218,0.041 0.109,0 0,0"
             style="fill:#007aff;fill-opacity:1;fill-rule:nonzero;stroke:none"
             id="path28" />
        </g>
        <g
           id="g30"
           transform="translate(15.9523,0.541)">
          <path
             d="m 0,0 c -0.109,0 -0.218,0.041 -0.301,0.124 -0.166,0.166 -0.166,0.436 0,0.602 l 1.797,1.795 c 0.356,0.357 0.356,0.937 0,1.293 l -1.995,1.994 c -0.346,0.345 -0.947,0.345 -1.292,0 L -3.255,4.344 c -0.166,-0.166 -0.436,-0.166 -0.602,0 -0.166,0.166 -0.166,0.435 0,0.601 l 1.464,1.464 c 0.666,0.666 1.83,0.666 2.496,0 L 2.097,4.416 C 2.785,3.728 2.785,2.608 2.097,1.92 L 0.301,0.124 C 0.218,0.041 0.109,0 0,0"
             style="fill:#007aff;fill-opacity:1;fill-rule:nonzero;stroke:none"
             id="path32" />
        </g>
        <g
           id="g34"
           transform="translate(14.3903)">
          <path
             d="m 0,0 c -2.338,0 -5.903,1.96 -9.204,5.259 -0.166,0.166 -0.166,0.435 0,0.601 0.166,0.166 0.436,0.166 0.602,0 4.324,-4.323 8.592,-5.868 9.863,-4.593 0.166,0.166 0.436,0.166 0.602,0 0.166,-0.166 0.166,-0.436 0,-0.602 C 1.412,0.215 0.773,0 0,0"
             style="fill:#007aff;fill-opacity:1;fill-rule:nonzero;stroke:none"
             id="path36" />
        </g>
        <g
           id="g38"
           transform="translate(11.9108,4.5908)">
          <path
             d="m 0,0 c -1.189,0 -3.039,1.299 -4.524,2.783 -0.166,0.166 -0.166,0.436 0,0.602 0.166,0.166 0.436,0.166 0.602,0 2.175,-2.176 3.867,-2.734 4.107,-2.489 0.166,0.166 0.435,0.166 0.601,0 C 0.952,0.729 0.952,0.46 0.786,0.294 0.583,0.091 0.314,0 0,0"
             style="fill:#007aff;fill-opacity:1;fill-rule:nonzero;stroke:none"
             id="path40" />
        </g>
        <g
           id="g42"
           transform="translate(20.4235,8.9854)">
          <path
             d="m 0,0 c -0.235,0 -0.425,0.19 -0.425,0.425 0,2.825 -1.1,5.48 -3.098,7.477 -1.997,1.998 -4.653,3.099 -7.478,3.099 -0.235,0 -0.425,0.19 -0.425,0.425 0,0.234 0.19,0.425 0.425,0.425 3.052,0 5.921,-1.189 8.08,-3.347 C -0.763,6.346 0.425,3.477 0.425,0.425 0.425,0.19 0.235,0 0,0"
             style="fill:#007aff;fill-opacity:1;fill-rule:nonzero;stroke:none"
             id="path44" />
        </g>
        <g
           id="g46"
           transform="translate(13.7726,8.9854)">
          <path
             d="m 0,0 c -0.235,0 -0.425,0.19 -0.425,0.425 0,1.048 -0.408,2.034 -1.15,2.775 -0.741,0.741 -1.727,1.15 -2.775,1.15 -0.235,0 -0.425,0.19 -0.425,0.424 0,0.235 0.19,0.425 0.425,0.425 1.275,0 2.475,-0.496 3.377,-1.397 C -0.071,2.899 0.425,1.7 0.425,0.425 0.425,0.19 0.235,0 0,0"
             style="fill:#007aff;fill-opacity:1;fill-rule:nonzero;stroke:none"
             id="path48" />
        </g>
        <g
           id="g50"
           transform="translate(17.1212,8.9854)">
          <path
             d="m 0,0 c -0.235,0 -0.425,0.19 -0.425,0.425 0,1.943 -0.757,3.769 -2.131,5.142 -1.372,1.374 -3.199,2.131 -5.143,2.131 -0.235,0 -0.425,0.191 -0.425,0.425 0,0.234 0.19,0.425 0.425,0.425 2.171,0 4.211,-0.845 5.745,-2.379 C -0.42,4.635 0.425,2.595 0.425,0.425 0.425,0.19 0.235,0 0,0"
             style="fill:#007aff;fill-opacity:1;fill-rule:nonzero;stroke:none"
             id="path52" />
        </g>
      </g>
    </g>
  </g>
</svg>
